<?xml version="1.0" encoding="UTF-8" standalone="no"?>
<svg
   xmlns:dc="http://purl.org/dc/elements/1.1/"
   xmlns:cc="http://creativecommons.org/ns#"
   xmlns:rdf="http://www.w3.org/1999/02/22-rdf-syntax-ns#"
   xmlns:svg="http://www.w3.org/2000/svg"
   xmlns="http://www.w3.org/2000/svg"
   xmlns:sodipodi="http://sodipodi.sourceforge.net/DTD/sodipodi-0.dtd"
   xmlns:inkscape="http://www.inkscape.org/namespaces/inkscape"
   width="153.15558mm"
   height="153.15558mm"
   viewBox="0 0 153.15558 153.15558"
   version="1.1"
   id="svg8"
   sodipodi:docname="swarm.svg"
   inkscape:version="1.0.2 (e86c8708, 2021-01-15)">
  <defs
     id="defs2">
    <inkscape:path-effect
       effect="spiro"
       id="path-effect245"
       is_visible="true"
       lpeversion="1" />
    <inkscape:path-effect
       effect="spiro"
       id="path-effect210"
       is_visible="true"
       lpeversion="1" />
    <pattern
       id="Voronoi1009"
       width="12.851191"
       height="12.851190999999996"
       patternUnits="userSpaceOnUse"
       patternTransform="translate(10.5833, 24.9464)">
      <path
         d="M 2.150,0.000 3.112,1.718 M 1.757,3.734 3.112,1.718 M 1.199,0.000 1.642,3.797 M 1.642,3.797 1.757,3.734 M 3.112,1.718 5.522,3.211 M 5.522,3.211 6.525,0.000 M 7.942,4.046 9.057,0.000 M 7.942,4.046 8.310,4.164 M 8.310,4.164 10.368,2.500 M 1.757,3.734 5.591,3.589 M 5.522,3.211 5.591,3.589 M 10.368,2.500 11.027,0.000 M 6.231,4.087 7.942,4.046 M 5.591,3.589 5.782,4.005 M 5.782,4.005 6.231,4.087 M 0.841,4.649 1.642,3.797 M 5.145,5.206 5.782,4.005 M 8.310,4.164 9.842,5.747 M 9.842,5.747 11.740,5.443 M 10.368,2.500 11.740,5.443 M 0.841,4.649 4.243,6.287 M 4.243,6.287 5.145,5.206 M 12.181,7.169 12.851,6.378 M 11.740,5.443 12.851,5.663 M 6.231,4.087 8.255,7.530 M 5.145,5.206 7.663,7.754 M 7.663,7.754 8.255,7.530 M 8.255,7.530 8.865,7.502 M 8.865,7.502 9.842,5.747 M 8.865,7.502 9.529,8.568 M 9.529,8.568 12.181,7.169 M 9.529,8.568 9.659,8.993 M 9.659,8.993 11.086,9.542 M 11.086,9.542 12.181,7.169 M 9.255,9.618 9.659,8.993 M 3.977,8.424 4.243,6.287 M 3.977,8.424 4.180,8.793 M 9.255,9.618 9.352,10.978 M 0.178,10.728 4.180,8.793 M 4.180,8.793 4.990,9.972 M 4.990,9.972 7.663,7.754 M 4.990,9.972 5.126,10.741 M 5.126,10.741 9.255,9.618 M 5.034,12.267 5.126,10.741 M 5.034,12.267 9.352,10.978 M 0.178,10.728 4.350,12.851 M 4.908,12.851 5.034,12.267 M 0.000,4.844 0.841,4.649 M 0.000,7.933 3.977,8.424 M 0.000,10.671 0.178,10.728 M 9.352,10.978 11.008,12.851 M 11.086,9.542 12.851,11.399 "
         style="stroke:#000000;stroke-width:0.26458333333333334"
         id="path54" />
    </pattern>
    <pattern
       id="Voronoi5369"
       width="92.98349893282602"
       height="92.98349893282601"
       patternUnits="userSpaceOnUse"
       patternTransform="translate(-114.15, 17.3869)">
      <path
         d="M 56.810,0.687 56.908,0.000 M 71.689,0.930 72.016,0.000 M 71.689,0.930 72.482,2.453 M 69.086,2.773 71.689,0.930 M 17.452,0.000 17.664,2.607 M 77.279,0.000 77.478,3.309 M 77.310,3.458 77.478,3.309 M 47.693,2.689 48.479,0.000 M 72.482,2.453 74.036,4.420 M 74.036,4.420 77.310,3.458 M 56.810,0.687 58.253,4.228 M 85.793,0.000 85.847,0.440 M 23.925,0.000 24.735,2.937 M 13.551,4.999 17.664,2.607 M 31.779,2.709 34.504,0.000 M 85.847,0.440 89.466,3.358 M 24.735,2.937 25.229,3.414 M 25.229,3.414 31.779,2.709 M 49.096,0.000 53.342,4.323 M 53.342,4.323 56.810,0.687 M 47.082,4.141 47.693,2.689 M 47.082,4.141 47.373,4.487 M 84.602,2.735 85.847,0.440 M 31.252,4.547 31.779,2.709 M 47.373,4.487 52.051,6.079 M 47.693,2.689 52.051,6.079 M 63.547,0.000 64.477,3.435 M 64.477,3.435 69.086,2.773 M 53.342,4.323 53.460,5.598 M 53.460,5.598 58.253,4.228 M 77.478,3.309 81.158,5.368 M 81.158,5.368 84.602,2.735 M 69.086,2.773 70.814,6.761 M 70.814,6.761 72.482,2.453 M 47.373,4.487 49.299,7.364 M 80.790,6.933 81.158,5.368 M 17.664,2.607 18.858,6.231 M 18.858,6.231 19.243,6.375 M 19.243,6.375 24.735,2.937 M 52.051,6.079 53.238,6.749 M 53.238,6.749 53.460,5.598 M 13.551,4.999 15.106,7.719 M 31.252,4.547 34.416,8.372 M 15.106,7.719 16.631,7.599 M 16.631,7.599 18.858,6.231 M 38.703,0.000 43.488,6.626 M 43.488,6.626 47.082,4.141 M 58.253,4.228 60.545,6.572 M 76.313,8.120 77.310,3.458 M 76.313,8.120 80.790,6.933 M 89.466,3.358 92.983,3.613 M 89.466,3.358 89.643,8.238 M 89.643,8.238 92.983,6.586 M 53.238,6.749 53.246,7.372 M 53.246,7.372 60.545,6.572 M 29.751,7.977 31.252,4.547 M 63.640,6.004 64.477,3.435 M 29.751,7.977 31.045,8.963 M 31.045,8.963 34.416,8.372 M 49.299,7.364 51.237,8.578 M 16.631,7.599 17.056,10.421 M 34.416,8.372 36.548,8.383 M 35.970,0.000 36.548,8.383 M 70.814,6.761 71.189,8.532 M 70.014,8.838 71.189,8.532 M 63.640,6.004 68.804,8.949 M 68.804,8.949 70.014,8.838 M 60.545,6.572 61.959,7.264 M 61.959,7.264 63.640,6.004 M 51.237,8.578 52.779,8.560 M 52.779,8.560 53.246,7.372 M 5.696,0.000 13.551,4.999 M 25.229,3.414 26.363,8.631 M 26.363,8.631 29.751,7.977 M 17.056,10.421 18.364,11.522 M 71.189,8.532 73.240,8.910 M 73.240,8.910 74.036,4.420 M 74.835,9.308 76.313,8.120 M 73.240,8.910 73.343,8.987 M 73.343,8.987 74.835,9.308 M 84.602,2.735 86.501,10.056 M 1.675,0.000 5.083,6.584 M 18.364,11.522 19.266,11.997 M 86.501,10.056 88.998,10.362 M 88.998,10.362 89.643,8.238 M 36.548,8.383 38.092,10.651 M 42.946,10.104 43.488,6.626 M 42.946,10.104 49.299,7.364 M 80.790,6.933 82.495,11.546 M 14.221,13.042 17.056,10.421 M 82.495,11.546 82.831,11.626 M 82.831,11.626 86.501,10.056 M 60.944,11.099 61.959,7.264 M 14.221,13.042 14.386,13.202 M 14.386,13.202 18.364,11.522 M 19.266,11.997 23.171,11.177 M 19.243,6.375 23.171,11.177 M 32.543,13.707 34.592,15.092 M 32.100,13.150 38.092,10.651 M 32.100,13.150 32.543,13.707 M 31.045,8.963 32.076,13.146 M 32.076,13.146 32.100,13.150 M 10.483,11.206 15.106,7.719 M 10.483,11.206 14.221,13.042 M 34.592,15.092 34.930,15.658 M 59.560,12.026 60.944,11.099 M 32.543,13.707 33.335,16.123 M 33.335,16.123 34.930,15.658 M 34.592,15.092 39.783,11.554 M 38.092,10.651 39.783,11.554 M 23.171,11.177 24.130,11.636 M 24.130,11.636 26.363,8.631 M 52.779,8.560 54.599,12.539 M 54.599,12.539 59.560,12.026 M 5.083,6.584 8.955,11.256 M 8.955,11.256 8.974,11.275 M 8.974,11.275 10.483,11.206 M 74.835,9.308 78.336,13.436 M 78.336,13.436 82.495,11.546 M 24.130,11.636 24.386,12.526 M 8.695,13.820 8.974,11.275 M 14.386,13.202 16.298,15.503 M 16.298,15.503 19.266,11.997 M 8.695,13.820 9.782,15.913 M 60.944,11.099 66.195,15.179 M 66.195,15.179 68.804,8.949 M 0.762,16.182 5.083,6.584 M 0.762,16.182 8.955,11.256 M 39.783,11.554 42.185,12.628 M 42.185,12.628 42.946,10.104 M 70.014,8.838 70.207,16.294 M 71.475,16.335 73.343,8.987 M 70.207,16.294 71.095,16.367 M 71.095,16.367 71.475,16.335 M 42.185,12.628 42.496,13.255 M 42.496,13.255 43.586,13.865 M 43.586,13.865 51.237,8.578 M 52.553,15.858 54.599,12.539 M 0.388,16.782 0.762,16.182 M 88.998,10.362 92.983,14.241 M 24.386,12.526 27.241,15.949 M 27.241,15.949 32.076,13.146 M 0.388,16.782 3.277,18.060 M 66.195,15.179 66.824,16.500 M 66.824,16.500 70.207,16.294 M 3.277,18.060 4.331,18.232 M 4.331,18.232 8.695,13.820 M 89.345,17.348 92.983,14.718 M 77.075,16.985 78.336,13.436 M 27.241,15.949 27.311,16.609 M 18.192,17.940 24.386,12.526 M 71.475,16.335 74.769,17.583 M 74.769,17.583 77.075,16.985 M 66.349,17.390 66.824,16.500 M 26.813,17.484 27.311,16.609 M 65.592,18.023 66.349,17.390 M 43.586,13.865 45.939,16.108 M 45.939,16.108 52.553,15.858 M 16.298,15.503 17.003,18.164 M 17.003,18.164 18.192,17.940 M 9.782,15.913 16.807,18.440 M 16.807,18.440 17.003,18.164 M 65.156,20.921 65.592,18.023 M 59.560,12.026 59.874,19.304 M 59.874,19.304 65.592,18.023 M 18.192,17.940 23.485,20.154 M 23.485,20.154 26.813,17.484 M 34.930,15.658 37.420,18.872 M 37.420,18.872 42.496,13.255 M 82.831,11.626 85.803,18.692 M 85.803,18.692 89.345,17.348 M 37.084,19.438 37.420,18.872 M 37.084,19.438 43.257,21.479 M 43.257,21.479 45.939,20.267 M 45.939,16.108 45.939,20.267 M 65.156,20.921 66.578,23.399 M 65.757,23.930 66.578,23.399 M 27.311,16.609 34.203,20.958 M 33.335,16.123 34.203,20.958 M 62.934,23.905 65.156,20.921 M 62.934,23.905 65.757,23.930 M 34.203,20.958 34.841,21.519 M 34.841,21.519 35.562,21.486 M 35.562,21.486 37.084,19.438 M 45.939,20.267 47.253,23.445 M 66.578,23.399 70.191,24.208 M 66.349,17.390 70.191,24.208 M 65.757,23.930 65.807,26.420 M 83.382,21.913 85.803,18.692 M 89.345,17.348 91.785,24.632 M 70.191,24.208 70.284,24.284 M 70.284,24.284 71.095,16.367 M 83.382,21.913 88.721,25.052 M 88.721,25.052 91.785,24.632 M 77.075,16.985 82.686,22.185 M 82.686,22.185 83.382,21.913 M 61.443,24.844 62.934,23.905 M 59.995,24.587 61.443,24.844 M 4.331,18.232 7.692,23.890 M 15.055,23.326 16.807,18.440 M 52.553,15.858 56.584,22.712 M 56.584,22.712 59.874,19.304 M 56.583,22.726 56.584,22.712 M 56.583,22.726 59.995,24.587 M 81.917,23.536 82.686,22.185 M 30.859,25.330 34.841,21.519 M 7.692,23.890 10.496,23.665 M 9.782,15.913 10.496,23.665 M 30.780,25.385 30.859,25.330 M 35.562,21.486 38.655,25.026 M 38.655,25.026 43.257,21.479 M 61.443,24.844 63.888,27.021 M 63.888,27.021 65.807,26.420 M 70.284,24.284 70.991,25.102 M 26.813,17.484 28.253,25.630 M 28.253,25.630 30.780,25.385 M 70.991,25.102 72.799,25.099 M 72.799,25.099 74.769,17.583 M 76.794,25.894 81.917,23.536 M 65.807,26.420 69.564,26.545 M 69.564,26.545 70.991,25.102 M 10.496,23.665 12.249,24.233 M 12.249,24.233 15.055,23.326 M 5.241,25.687 7.692,23.890 M 47.253,23.445 54.671,24.686 M 54.671,24.686 56.583,22.726 M 72.799,25.099 74.492,26.156 M 74.492,26.156 76.794,25.894 M 0.334,25.916 3.277,18.060 M 0.334,25.916 5.241,25.687 M 12.233,27.636 12.249,24.233 M 15.055,23.326 20.448,26.477 M 59.995,24.587 60.595,30.089 M 20.448,26.477 22.290,26.474 M 22.290,26.474 23.485,20.154 M 76.794,25.894 78.952,30.531 M 88.133,29.537 88.721,25.052 M 78.952,30.531 79.674,30.842 M 68.468,29.939 69.564,26.545 M 18.420,30.127 20.448,26.477 M 12.233,27.636 15.290,31.061 M 15.290,31.061 18.420,30.127 M 30.780,25.385 32.561,30.522 M 81.917,23.536 83.288,29.626 M 83.288,29.626 88.133,29.537 M 22.290,26.474 24.576,27.716 M 24.576,27.716 28.253,25.630 M 68.468,29.939 74.280,30.775 M 74.280,30.775 74.492,26.156 M 79.674,30.842 82.925,30.499 M 82.925,30.499 83.288,29.626 M 60.595,30.089 64.327,30.907 M 63.888,27.021 64.327,30.907 M 53.923,29.408 54.671,24.686 M 74.280,30.775 74.480,32.091 M 18.420,30.127 18.806,33.330 M 74.480,32.091 74.732,32.470 M 74.732,32.470 78.952,30.531 M 53.923,29.408 57.236,32.309 M 57.236,32.309 60.595,30.089 M 57.236,32.309 57.304,32.492 M 18.806,33.330 19.809,34.109 M 32.561,30.522 36.453,32.404 M 49.347,32.495 53.923,29.408 M 66.785,32.863 68.468,29.939 M 66.785,32.863 74.480,32.091 M 19.809,34.109 25.761,32.460 M 24.576,27.716 25.761,32.460 M 42.784,30.772 47.253,23.445 M 42.784,30.772 49.347,32.495 M 25.761,32.460 26.261,33.145 M 26.261,33.145 32.561,30.522 M 5.241,25.687 6.725,33.607 M 14.196,34.932 15.290,31.061 M 14.196,34.932 18.806,33.330 M 64.327,30.907 66.204,33.390 M 66.204,33.390 66.785,32.863 M 19.652,36.536 19.809,34.109 M 6.725,33.607 9.306,33.983 M 9.306,33.983 12.233,27.636 M 38.655,25.026 41.316,31.184 M 41.316,31.184 42.784,30.772 M 28.811,35.445 36.453,32.404 M 4.860,34.502 6.725,33.607 M 26.261,33.145 26.638,34.570 M 26.638,34.570 28.811,35.445 M 30.859,25.330 40.689,31.951 M 40.689,31.951 41.316,31.184 M 49.347,32.495 50.429,35.889 M 82.925,30.499 83.739,35.590 M 18.550,37.787 19.652,36.536 M 25.774,36.457 26.638,34.570 M 36.453,32.404 39.905,33.095 M 39.905,33.095 40.689,31.951 M 82.539,36.454 83.739,35.590 M 28.811,35.445 31.781,38.105 M 31.781,38.105 33.249,38.313 M 19.652,36.536 24.742,37.752 M 24.742,37.752 25.774,36.457 M 65.773,35.753 66.204,33.390 M 74.732,32.470 75.803,36.645 M 75.803,36.645 77.627,36.986 M 77.627,36.986 79.674,30.842 M 77.627,36.986 77.664,37.001 M 77.664,37.001 82.539,36.454 M 24.478,38.562 24.742,37.752 M 9.306,33.983 12.517,36.773 M 12.517,36.773 14.196,34.932 M 12.517,36.773 12.527,36.808 M 12.527,36.808 13.041,37.249 M 13.041,37.249 18.550,37.787 M 65.773,35.753 73.936,37.825 M 73.936,37.825 75.803,36.645 M 57.304,32.492 65.073,36.508 M 65.073,36.508 65.773,35.753 M 33.249,38.313 39.649,35.382 M 39.649,35.382 39.905,33.095 M 55.728,38.443 57.304,32.492 M 55.728,38.443 64.987,36.729 M 64.987,36.729 65.073,36.508 M 0.000,25.987 0.334,25.916 M 0.000,32.641 4.860,34.502 M 77.664,37.001 78.555,40.638 M 39.649,35.382 40.083,36.670 M 40.083,36.670 46.274,40.154 M 46.274,40.154 50.429,35.889 M 25.774,36.457 29.482,41.230 M 29.482,41.230 31.781,38.105 M 3.458,39.877 4.860,34.502 M 76.459,42.983 78.555,40.638 M 18.550,37.787 20.221,41.233 M 20.221,41.233 24.478,38.562 M 73.122,41.149 73.936,37.825 M 73.122,41.149 76.459,42.983 M 13.041,37.249 14.868,41.622 M 13.825,42.781 14.868,41.622 M 50.429,35.889 54.630,39.675 M 54.630,39.675 55.728,38.443 M 64.822,40.088 64.987,36.729 M 64.822,40.088 68.805,42.069 M 68.805,42.069 72.619,41.938 M 72.619,41.938 73.122,41.149 M 33.249,38.313 33.371,42.799 M 83.739,35.590 92.983,36.802 M 29.259,42.705 29.482,41.230 M 19.893,42.281 20.221,41.233 M 88.133,29.537 92.983,34.844 M 10.449,43.851 13.825,42.781 M 24.478,38.562 26.145,43.200 M 26.145,43.200 29.259,42.705 M 29.259,42.705 30.388,43.531 M 30.388,43.531 33.371,42.799 M 7.691,42.652 12.527,36.808 M 7.691,42.652 10.449,43.851 M 82.539,36.454 83.525,43.249 M 46.274,40.154 47.549,43.078 M 47.549,43.078 51.993,42.872 M 83.525,43.249 88.200,42.926 M 88.200,42.926 92.983,37.407 M 51.993,42.872 54.635,41.705 M 54.630,39.675 54.635,41.705 M 3.458,39.877 7.197,42.846 M 7.197,42.846 7.691,42.652 M 14.868,41.622 18.266,43.695 M 18.266,43.695 19.893,42.281 M 7.077,43.271 7.197,42.846 M 0.000,40.856 3.458,39.877 M 19.893,42.281 25.110,44.616 M 25.110,44.616 26.145,43.200 M 78.555,40.638 81.234,44.556 M 0.000,43.188 4.758,45.848 M 4.758,45.848 7.077,43.271 M 81.234,44.556 82.030,44.532 M 82.030,44.532 83.525,43.249 M 39.018,43.770 40.083,36.670 M 51.096,47.290 51.993,42.872 M 33.371,42.799 37.109,44.754 M 35.097,46.365 36.909,44.988 M 36.909,44.988 37.109,44.754 M 25.026,45.927 25.110,44.616 M 37.109,44.754 38.266,44.428 M 38.266,44.428 39.018,43.770 M 19.565,46.663 25.026,45.927 M 18.125,45.710 18.266,43.695 M 18.125,45.710 19.565,46.663 M 13.198,46.963 13.825,42.781 M 62.486,44.343 64.822,40.088 M 38.266,44.428 39.005,47.332 M 10.449,43.851 12.905,47.096 M 12.905,47.096 13.198,46.963 M 30.388,43.531 30.624,47.117 M 30.624,47.117 35.097,46.365 M 62.486,44.343 67.790,47.018 M 13.198,46.963 17.019,46.747 M 17.019,46.747 18.125,45.710 M 47.297,47.574 51.096,47.290 M 47.297,47.574 49.907,49.464 M 88.200,42.926 88.804,47.245 M 88.804,47.245 89.161,47.370 M 19.565,46.663 20.713,48.697 M 76.459,42.983 77.754,46.694 M 77.754,46.694 81.234,44.556 M 77.721,46.734 77.754,46.694 M 39.018,43.770 45.375,46.282 M 45.375,46.282 47.549,43.078 M 67.790,47.018 69.269,47.519 M 68.805,42.069 69.269,47.519 M 7.077,43.271 9.335,48.563 M 64.947,50.069 67.790,47.018 M 45.375,46.282 45.570,47.170 M 45.570,47.170 47.297,47.574 M 16.902,49.454 17.019,46.747 M 16.838,49.550 16.902,49.454 M 69.269,47.519 69.711,47.834 M 25.026,45.927 25.787,48.209 M 49.907,49.464 52.333,49.415 M 51.096,47.290 52.333,49.415 M 16.902,49.454 19.143,50.657 M 19.143,50.657 20.713,48.697 M 69.711,47.834 72.909,47.515 M 72.619,41.938 72.909,47.515 M 7.213,49.855 9.335,48.563 M 9.335,48.563 11.546,49.060 M 11.546,49.060 12.905,47.096 M 29.602,48.964 30.624,47.117 M 72.909,47.515 73.800,48.032 M 20.713,48.697 23.114,50.088 M 16.838,49.550 17.548,51.989 M 23.114,50.088 23.359,50.077 M 23.359,50.077 25.787,48.209 M 54.635,41.705 59.340,46.308 M 59.340,46.308 62.486,44.343 M 17.243,52.338 17.548,51.989 M 29.602,48.964 33.702,50.713 M 33.702,50.713 35.097,46.365 M 73.800,48.032 74.724,48.477 M 74.724,48.477 77.721,46.734 M 25.787,48.209 28.595,49.462 M 28.595,49.462 29.602,48.964 M 5.598,50.438 7.213,49.855 M 17.548,51.989 19.536,51.926 M 19.143,50.657 19.536,51.926 M 2.990,49.513 4.758,45.848 M 2.990,49.513 5.598,50.438 M 64.947,50.069 68.095,51.272 M 68.095,51.272 69.711,47.834 M 89.161,47.370 90.977,51.997 M 36.137,51.705 36.909,44.988 M 36.137,51.705 38.205,51.820 M 38.205,51.820 39.005,47.332 M 19.536,51.926 20.193,52.660 M 20.193,52.660 23.114,50.088 M 74.724,48.477 75.324,51.184 M 33.702,50.713 34.767,52.083 M 34.767,52.083 36.137,51.705 M 82.030,44.532 85.158,50.806 M 85.158,50.806 88.804,47.245 M 17.243,52.338 17.980,54.406 M 13.221,52.490 16.838,49.550 M 13.221,52.490 17.243,52.338 M 68.009,53.100 68.095,51.272 M 34.193,53.469 34.767,52.083 M 58.819,49.712 59.340,46.308 M 58.819,49.712 64.947,50.069 M 68.009,53.100 69.579,53.903 M 69.579,53.903 73.800,48.032 M 11.546,49.060 12.874,52.671 M 12.874,52.671 13.221,52.490 M 0.000,50.443 2.990,49.513 M 16.232,54.882 17.980,54.406 M 20.193,52.660 20.195,54.153 M 75.324,51.184 82.774,52.731 M 17.980,54.406 19.698,54.578 M 19.698,54.578 20.195,54.153 M 82.774,52.731 83.210,52.565 M 77.721,46.734 83.210,52.565 M 20.195,54.153 23.168,54.968 M 39.005,47.332 44.404,52.463 M 44.404,52.463 45.570,47.170 M 7.213,49.855 11.167,54.202 M 83.210,52.565 84.797,52.452 M 84.797,52.452 85.158,50.806 M 69.579,53.903 71.048,54.934 M 23.359,50.077 24.596,54.952 M 5.598,50.438 7.569,54.987 M 7.569,54.987 11.167,54.202 M 24.596,54.952 28.441,54.377 M 28.441,54.377 28.595,49.462 M 84.797,52.452 85.343,53.120 M 85.343,53.120 90.977,51.997 M 23.168,54.968 24.335,55.161 M 24.335,55.161 24.596,54.952 M 74.640,54.335 75.324,51.184 M 11.167,54.202 12.537,54.089 M 12.537,54.089 12.874,52.671 M 52.333,49.415 56.083,52.219 M 12.537,54.089 12.569,54.142 M 12.569,54.142 16.232,54.882 M 56.083,52.219 58.216,51.426 M 58.216,51.426 58.819,49.712 M 16.232,54.882 17.313,57.415 M 71.048,54.934 72.552,55.529 M 72.552,55.529 74.640,54.335 M 58.216,51.426 60.476,54.082 M 12.569,54.142 12.845,56.805 M 44.375,53.925 44.404,52.463 M 67.325,58.031 71.048,54.934 M 44.375,53.925 46.655,54.740 M 46.655,54.740 49.907,49.464 M 23.917,57.767 24.335,55.161 M 12.845,56.805 13.933,57.867 M 13.933,57.867 17.313,57.415 M 46.655,54.740 47.422,55.115 M 28.441,54.377 30.408,56.233 M 30.408,56.233 34.193,53.469 M 38.205,51.820 42.871,54.707 M 42.871,54.707 44.375,53.925 M 74.640,54.335 78.261,57.079 M 78.261,57.079 82.774,52.731 M 17.313,57.415 19.229,58.567 M 19.229,58.567 19.698,54.578 M 22.505,59.111 23.917,57.767 M 22.505,59.111 24.808,60.548 M 63.075,56.170 68.009,53.100 M 63.075,56.170 67.325,58.031 M 47.422,55.115 51.941,55.827 M 51.941,55.827 56.083,52.219 M 60.476,54.082 62.780,56.216 M 62.780,56.216 63.075,56.170 M 78.261,57.079 78.516,58.299 M 19.229,58.567 19.356,58.915 M 19.356,58.915 23.168,54.968 M 0.000,51.566 5.024,58.155 M 5.024,58.155 7.569,54.987 M 10.123,60.169 12.845,56.805 M 24.808,60.548 27.575,60.232 M 23.917,57.767 27.575,60.232 M 10.123,60.169 11.104,61.147 M 30.408,56.233 30.788,58.825 M 85.343,53.120 87.088,58.310 M 78.516,58.299 79.848,60.325 M 79.848,60.325 87.088,58.310 M 27.575,60.232 28.489,60.637 M 28.489,60.637 30.788,58.825 M 23.058,62.732 24.808,60.548 M 23.058,62.732 23.221,62.747 M 34.193,53.469 39.569,59.545 M 39.569,59.545 42.871,54.707 M 23.221,62.747 27.939,62.046 M 27.939,62.046 28.489,60.637 M 19.356,58.915 19.910,60.925 M 19.910,60.925 22.505,59.111 M 71.533,61.100 72.552,55.529 M 71.533,61.100 78.516,58.299 M 19.772,61.404 19.910,60.925 M 19.772,61.404 21.530,62.794 M 21.530,62.794 23.058,62.732 M 4.808,60.556 5.024,58.155 M 4.808,60.556 10.123,60.169 M 67.325,58.031 71.255,61.637 M 71.255,61.637 71.533,61.100 M 87.088,58.310 89.624,60.517 M 30.788,58.825 36.410,61.861 M 13.933,57.867 16.514,63.011 M 16.514,63.011 19.772,61.404 M 4.054,61.684 4.808,60.556 M 11.104,61.147 16.341,63.222 M 16.341,63.222 16.514,63.011 M 21.530,62.794 22.362,65.600 M 62.112,62.793 62.780,56.216 M 36.410,61.861 38.755,61.938 M 38.755,61.938 39.569,59.545 M 15.824,64.752 16.341,63.222 M 21.788,67.373 22.362,65.600 M 46.400,64.811 47.422,55.115 M 22.362,65.600 27.243,66.578 M 23.221,62.747 27.243,66.578 M 46.400,64.811 49.572,65.081 M 38.755,61.938 39.753,63.459 M 49.572,65.081 53.686,63.882 M 51.941,55.827 53.686,63.882 M 87.763,65.071 89.624,60.517 M 87.763,65.071 91.776,67.930 M 49.463,68.191 49.572,65.081 M 53.686,63.882 54.267,64.184 M 54.267,64.184 60.476,54.082 M 59.296,64.789 62.112,62.793 M 10.363,66.786 11.104,61.147 M 10.363,66.786 15.824,64.752 M 35.573,68.724 39.753,63.459 M 87.268,65.563 87.763,65.071 M 54.267,64.184 55.002,64.670 M 39.753,63.459 41.736,65.121 M 27.243,66.578 28.343,66.994 M 27.939,62.046 28.343,66.994 M 41.736,65.121 43.378,65.545 M 43.378,65.545 46.400,64.811 M 55.002,64.670 58.171,65.315 M 58.171,65.315 59.296,64.789 M 91.523,70.280 91.776,67.930 M 90.132,70.582 91.523,70.280 M 87.268,65.563 87.381,68.421 M 87.381,68.421 90.132,70.582 M 15.824,64.752 17.389,68.462 M 17.389,68.462 21.788,67.373 M 49.301,70.469 49.463,68.191 M 62.112,62.793 70.957,65.718 M 70.957,65.718 71.255,61.637 M 17.320,69.170 17.389,68.462 M 90.055,71.903 90.132,70.582 M 86.802,70.492 87.381,68.421 M 86.802,70.492 90.055,71.903 M 4.054,61.684 5.860,67.222 M 78.486,66.795 79.848,60.325 M 78.486,66.795 87.268,65.563 M 86.635,70.893 86.802,70.492 M 86.249,71.190 86.635,70.893 M 28.343,66.994 29.171,68.506 M 29.171,68.506 36.410,61.861 M 78.091,67.158 78.486,66.795 M 49.463,68.191 53.093,71.618 M 53.093,71.618 55.002,64.670 M 78.091,67.158 79.131,69.360 M 79.131,69.360 86.249,71.190 M 43.378,65.545 45.428,71.621 M 5.860,67.222 7.562,68.587 M 7.562,68.587 10.363,66.786 M 70.957,65.718 71.840,67.193 M 71.840,67.193 72.017,67.278 M 72.017,67.278 78.091,67.158 M 45.428,71.621 45.839,71.995 M 45.839,71.995 49.301,70.469 M 79.131,69.360 79.557,70.840 M 79.557,70.840 82.713,72.846 M 59.296,64.789 66.611,71.249 M 66.611,71.249 71.840,67.193 M 57.429,72.934 59.658,71.706 M 58.171,65.315 59.658,71.706 M 45.839,71.995 46.175,73.014 M 82.713,72.846 84.704,73.689 M 84.704,73.689 86.249,71.190 M 39.045,72.798 41.736,65.121 M 35.573,68.724 38.774,72.865 M 38.774,72.865 39.045,72.798 M 21.788,67.373 24.963,71.880 M 37.572,73.499 38.774,72.865 M 39.045,72.798 40.516,73.771 M 40.516,73.771 45.428,71.621 M 54.988,73.859 57.429,72.934 M 79.066,74.158 79.557,70.840 M 49.301,70.469 52.652,73.437 M 52.652,73.437 53.093,71.618 M 59.658,71.706 61.992,73.469 M 32.536,73.423 37.572,73.499 M 24.963,71.880 28.265,71.719 M 79.066,74.158 81.805,76.245 M 81.805,76.245 82.713,72.846 M 61.992,73.469 64.907,73.411 M 64.907,73.411 66.611,71.249 M 52.652,73.437 52.733,73.850 M 52.733,73.850 54.988,73.859 M 28.265,71.719 29.183,71.468 M 29.171,68.506 29.183,71.468 M 29.183,71.468 29.336,71.577 M 29.336,71.577 35.573,68.724 M 81.805,76.245 82.012,76.470 M 86.635,70.893 90.019,74.995 M 64.907,73.411 65.471,74.550 M 60.871,75.942 61.992,73.469 M 29.336,71.577 30.232,72.721 M 30.232,72.721 32.536,73.423 M 54.988,73.859 57.290,77.169 M 90.019,74.995 90.851,75.066 M 90.055,71.903 90.851,75.066 M 52.047,74.896 52.733,73.850 M 52.047,74.896 54.955,77.807 M 54.955,77.807 57.290,77.169 M 17.320,69.170 19.933,74.311 M 19.933,74.311 24.963,71.880 M 46.175,73.014 51.408,75.413 M 51.408,75.413 52.047,74.896 M 7.562,68.587 8.974,73.013 M 8.974,73.013 17.320,69.170 M 81.142,78.005 82.012,76.470 M 82.012,76.470 85.461,76.379 M 84.704,73.689 85.461,76.379 M 57.290,77.169 58.183,77.607 M 57.429,72.934 58.183,77.607 M 85.461,76.379 85.491,76.406 M 85.491,76.406 90.019,74.995 M 58.183,77.607 58.316,77.704 M 58.316,77.704 60.871,75.942 M 19.424,75.367 19.933,74.311 M 60.871,75.942 62.097,79.135 M 32.536,73.423 35.923,78.678 M 76.475,77.407 79.066,74.158 M 76.475,77.407 81.142,78.005 M 65.471,74.550 70.950,77.655 M 81.142,78.005 81.529,79.612 M 50.348,77.697 51.408,75.413 M 30.232,72.721 30.325,78.041 M 30.325,78.041 35.923,78.678 M 81.529,79.612 82.323,79.916 M 85.491,76.406 85.587,78.667 M 70.950,77.655 73.156,77.165 M 72.017,67.278 73.156,77.165 M 75.987,77.755 76.475,77.407 M 69.260,79.474 70.950,77.655 M 65.068,79.503 65.471,74.550 M 65.068,79.503 69.260,79.474 M 73.156,77.165 73.924,77.705 M 73.924,77.705 75.987,77.755 M 8.974,73.013 8.976,75.310 M 82.323,79.916 84.020,80.133 M 84.020,80.133 85.587,78.667 M 91.785,24.632 92.983,24.862 M 62.097,79.135 64.535,80.197 M 64.535,80.197 65.068,79.503 M 35.923,78.678 37.272,79.714 M 37.272,79.714 37.572,73.499 M 47.701,79.612 50.348,77.697 M 37.272,79.714 37.375,79.915 M 50.348,77.697 54.191,81.247 M 75.987,77.755 78.691,81.333 M 78.691,81.333 81.529,79.612 M 19.424,75.367 24.089,80.357 M 24.089,80.357 28.265,71.719 M 8.976,75.310 14.569,78.290 M 14.569,78.290 19.424,75.367 M 54.191,81.247 55.365,81.389 M 54.955,77.807 55.365,81.389 M 51.769,82.931 54.191,81.247 M 47.701,79.612 49.337,82.289 M 49.337,82.289 51.769,82.931 M 58.056,81.318 58.316,77.704 M 58.056,81.318 62.097,79.135 M 73.361,82.249 73.924,77.705 M 89.624,60.517 92.983,59.841 M 90.977,51.997 92.983,52.139 M 40.516,73.771 43.604,79.567 M 43.604,79.567 46.175,73.014 M 34.004,82.180 37.375,79.915 M 43.604,79.567 43.609,79.615 M 43.609,79.615 47.701,79.612 M 84.003,83.094 84.020,80.133 M 64.472,82.405 64.535,80.197 M 14.569,78.290 15.053,80.928 M 55.365,81.389 56.964,82.213 M 57.641,82.216 58.056,81.318 M 57.641,82.216 64.472,82.405 M 3.460,79.341 8.976,75.310 M 56.964,82.213 57.516,82.339 M 57.516,82.339 57.641,82.216 M 34.004,82.180 36.991,85.112 M 69.010,83.637 69.260,79.474 M 69.010,83.637 73.361,82.249 M 15.053,80.928 15.375,81.739 M 29.470,82.011 30.325,78.041 M 3.460,79.341 8.133,84.408 M 8.133,84.408 15.053,80.928 M 90.851,75.066 92.983,75.841 M 91.523,70.280 92.983,71.942 M 37.375,79.915 42.005,81.470 M 42.005,81.470 43.609,79.615 M 78.691,81.333 78.916,83.923 M 57.516,82.339 57.861,83.893 M 73.361,82.249 74.934,84.633 M 74.934,84.633 78.916,83.923 M 29.470,82.011 31.254,83.126 M 31.254,83.126 34.004,82.180 M 84.003,83.094 87.956,84.304 M 81.561,84.748 84.003,83.094 M 74.689,85.145 74.934,84.633 M 51.769,82.931 52.320,85.806 M 52.320,85.806 56.964,82.213 M 81.021,84.727 81.561,84.748 M 80.786,84.691 82.323,79.916 M 80.786,84.691 81.021,84.727 M 78.916,83.923 79.810,84.658 M 79.810,84.658 80.786,84.691 M 24.089,80.357 25.141,82.924 M 25.141,82.924 29.470,82.011 M 48.649,86.102 49.337,82.289 M 48.003,86.278 48.649,86.102 M 31.254,83.126 32.012,85.434 M 31.885,85.635 32.012,85.434 M 87.956,84.304 91.628,83.075 M 85.587,78.667 91.628,83.075 M 32.012,85.434 32.606,85.924 M 32.606,85.924 36.991,85.112 M 79.137,87.148 79.810,84.658 M 89.161,47.370 92.983,47.989 M 14.470,85.729 15.375,81.739 M 0.000,80.174 3.460,79.341 M 0.000,82.512 2.060,85.512 M 74.472,87.377 74.689,85.145 M 74.472,87.377 79.137,87.148 M 48.649,86.102 51.079,87.122 M 15.375,81.739 23.752,84.726 M 23.752,84.726 25.141,82.924 M 51.079,87.122 51.937,87.185 M 51.937,87.185 52.320,85.806 M 28.380,88.631 31.885,85.635 M 14.470,85.729 15.342,87.141 M 51.937,87.185 52.116,87.353 M 10.326,87.316 14.470,85.729 M 15.342,87.141 23.696,85.261 M 23.696,85.261 23.752,84.726 M 23.696,85.261 23.697,85.801 M 23.697,85.801 28.380,88.631 M 8.133,84.408 9.280,87.421 M 9.280,87.421 10.326,87.316 M 78.986,88.731 79.137,87.148 M 67.108,86.084 69.010,83.637 M 67.108,86.084 74.689,85.145 M 67.071,86.117 67.108,86.084 M 81.561,84.748 84.921,88.298 M 84.921,88.298 87.956,84.304 M 64.472,82.405 66.265,86.180 M 66.265,86.180 67.071,86.117 M 78.986,88.731 79.302,89.290 M 23.148,87.485 23.697,85.801 M 84.921,88.298 84.951,89.174 M 41.979,86.543 42.005,81.470 M 41.979,86.543 48.003,86.278 M 73.973,89.328 74.472,87.377 M 73.973,89.328 78.986,88.731 M 36.991,85.112 41.818,86.883 M 41.818,86.883 41.979,86.543 M 48.003,86.278 48.356,90.986 M 48.356,90.986 51.079,87.122 M 52.116,87.353 55.083,89.302 M 55.083,89.302 57.861,83.893 M 57.861,83.893 63.706,88.525 M 63.706,88.525 66.265,86.180 M 2.060,85.512 7.358,89.973 M 7.358,89.973 9.280,87.421 M 79.302,89.290 82.158,91.335 M 81.021,84.727 82.158,91.335 M 67.071,86.117 72.755,90.927 M 72.755,90.927 73.973,89.328 M 28.380,88.631 30.030,92.544 M 30.030,92.544 31.885,85.635 M 72.755,90.927 72.882,92.301 M 62.404,91.963 63.706,88.525 M 62.404,91.963 72.882,92.301 M 82.158,91.335 83.845,92.853 M 83.845,92.853 84.951,89.174 M 15.342,87.141 17.592,92.838 M 17.592,92.838 23.148,87.485 M 72.882,92.301 73.100,92.983 M 76.269,92.983 79.302,89.290 M 0.000,69.784 5.860,67.222 M 10.326,87.316 14.588,92.983 M 17.555,92.983 17.592,92.838 M 32.606,85.924 38.336,92.983 M 40.316,92.983 41.818,86.883 M 91.628,83.075 92.983,83.164 M 55.083,89.302 56.514,92.983 M 61.792,92.983 62.404,91.963 M 84.951,89.174 92.983,88.038 M 23.148,87.485 26.592,92.983 M 30.030,92.544 30.096,92.983 M 0.000,16.818 0.388,16.782 M 47.632,92.983 48.356,90.986 M 49.323,92.983 52.116,87.353 M 2.060,85.512 2.399,92.983 M 6.969,92.983 7.358,89.973 M 0.000,61.409 4.054,61.684 M 83.845,92.853 83.869,92.983 M 91.776,67.930 92.983,68.036 "
         style="stroke:#000000;stroke-width:0.26458333333333334"
         id="path140" />
    </pattern>
    <pattern
       id="Voronoi4030"
       width="92.98349893282602"
       height="92.98349893282601"
       patternUnits="userSpaceOnUse"
       patternTransform="translate(-114.15, 17.3869)">
      <path
         d="M 7.514,0.000 7.655,1.524 M 10.263,1.410 10.750,0.000 M 7.655,1.524 8.252,2.569 M 8.252,2.569 10.263,1.410 M 4.432,2.393 5.772,0.000 M 4.432,2.393 7.655,1.524 M 23.032,2.232 23.716,0.000 M 23.032,2.232 25.299,4.268 M 82.219,0.000 82.574,1.791 M 35.534,4.331 36.566,0.000 M 70.899,0.000 71.330,1.194 M 25.299,4.268 29.634,2.866 M 29.634,2.866 29.707,0.000 M 25.013,5.907 25.299,4.268 M 16.909,0.000 17.537,3.856 M 25.013,5.907 28.500,6.098 M 80.634,5.473 82.574,1.791 M 71.330,1.194 74.756,5.189 M 74.756,5.189 80.235,0.000 M 17.537,3.856 20.391,5.287 M 20.391,5.287 23.032,2.232 M 20.391,5.287 20.461,5.450 M 14.487,5.864 17.537,3.856 M 35.534,4.331 38.204,6.712 M 28.500,6.098 30.214,5.275 M 29.634,2.866 30.214,5.275 M 68.893,7.008 71.330,1.194 M 17.357,8.556 20.461,5.450 M 12.165,5.793 13.249,0.000 M 12.165,5.793 14.487,5.864 M 10.263,1.410 12.095,5.815 M 12.095,5.815 12.165,5.793 M 14.487,5.864 15.323,7.745 M 15.323,7.745 17.357,8.556 M 38.204,6.712 42.637,4.946 M 39.661,0.000 42.637,4.946 M 62.157,4.530 64.887,0.000 M 26.155,8.626 28.500,6.098 M 42.637,4.946 43.701,5.538 M 30.214,5.275 31.617,6.820 M 31.617,6.820 35.534,4.331 M 74.756,5.189 75.472,6.754 M 75.472,6.754 80.634,5.473 M 43.701,5.538 50.281,4.118 M 50.254,0.000 50.281,4.118 M 62.157,4.530 65.393,7.898 M 65.393,7.898 68.893,7.008 M 15.238,10.155 15.323,7.745 M 82.574,1.791 89.036,6.625 M 1.451,5.703 4.432,2.393 M 26.155,8.626 29.143,10.049 M 57.625,0.000 57.933,5.999 M 57.933,5.999 62.157,4.530 M 15.238,10.155 18.170,10.364 M 17.357,8.556 18.170,10.364 M 28.950,10.380 29.143,10.049 M 29.143,10.049 31.960,8.137 M 31.617,6.820 31.960,8.137 M 20.461,5.450 22.363,8.331 M 22.363,8.331 25.013,5.907 M 26.728,11.326 28.950,10.380 M 50.281,4.118 52.012,5.810 M 23.559,9.459 26.155,8.626 M 23.559,9.459 26.728,11.326 M 18.170,10.364 18.900,10.837 M 31.960,8.137 33.390,9.641 M 42.884,10.105 43.701,5.538 M 22.363,8.331 22.590,9.402 M 22.590,9.402 23.559,9.459 M 86.483,9.654 89.036,6.625 M 86.483,9.654 89.696,12.611 M 8.118,8.351 12.095,5.815 M 49.299,11.130 52.012,5.810 M 1.451,5.703 6.141,8.245 M 52.012,5.810 56.064,7.213 M 56.064,7.213 57.933,5.999 M 7.280,8.273 8.252,2.569 M 7.280,8.273 8.118,8.351 M 33.390,9.641 35.873,10.468 M 35.873,10.468 38.204,6.712 M 6.141,8.245 6.540,8.401 M 6.540,8.401 7.280,8.273 M 21.979,10.614 22.590,9.402 M 85.307,10.541 86.483,9.654 M 49.299,11.130 50.128,13.440 M 18.900,10.837 20.571,11.545 M 20.571,11.545 21.979,10.614 M 56.064,7.213 56.748,9.798 M 55.966,11.148 56.748,9.798 M 0.693,13.831 6.141,8.245 M 80.634,5.473 83.505,11.175 M 83.505,11.175 85.307,10.541 M 74.589,10.815 75.472,6.754 M 35.873,10.468 37.430,12.525 M 37.430,12.525 42.884,10.105 M 13.128,12.926 15.238,10.155 M 13.128,12.926 18.900,10.837 M 42.884,10.105 45.039,13.289 M 45.039,13.289 49.299,11.130 M 74.589,10.815 82.761,12.018 M 82.761,12.018 83.505,11.175 M 68.893,7.008 73.749,11.609 M 73.749,11.609 74.589,10.815 M 26.728,11.326 27.373,14.561 M 73.716,11.671 73.749,11.609 M 73.716,11.671 75.046,13.289 M 50.128,13.440 50.866,14.980 M 21.979,10.614 25.022,14.761 M 25.022,14.761 27.373,14.561 M 8.118,8.351 12.839,13.231 M 12.839,13.231 13.128,12.926 M 50.866,14.980 52.527,15.217 M 52.527,15.217 55.966,11.148 M 85.307,10.541 89.050,15.727 M 89.050,15.727 89.696,12.611 M 49.266,16.361 50.866,14.980 M 30.363,15.139 33.390,9.641 M 27.373,14.561 29.192,15.171 M 29.192,15.171 29.214,15.170 M 28.950,10.380 29.214,15.170 M 29.214,15.170 29.670,15.302 M 29.670,15.302 30.363,15.139 M 56.748,9.798 61.087,14.396 M 60.765,14.969 61.087,14.396 M 89.050,15.727 89.363,16.512 M 29.670,15.302 29.862,17.870 M 5.241,15.813 6.540,8.401 M 5.234,15.822 5.241,15.813 M 65.393,7.898 66.125,14.224 M 0.693,13.831 5.002,15.953 M 5.002,15.953 5.234,15.822 M 61.087,14.396 65.696,14.474 M 65.696,14.474 66.125,14.224 M 66.125,14.224 70.582,14.479 M 70.582,14.479 73.716,11.671 M 44.810,15.928 45.039,13.289 M 44.810,15.928 50.128,13.440 M 44.786,16.113 44.810,15.928 M 18.264,16.204 20.571,11.545 M 12.839,13.231 13.568,16.077 M 13.568,16.077 18.264,16.204 M 5.241,15.813 13.504,16.158 M 13.504,16.158 13.568,16.077 M 29.862,17.870 30.586,19.709 M 37.430,12.525 37.489,16.465 M 37.489,16.465 44.786,16.113 M 46.843,17.833 49.266,16.361 M 3.098,18.502 5.002,15.953 M 30.586,19.709 35.473,18.117 M 35.473,18.117 36.238,17.250 M 30.363,15.139 36.238,17.250 M 36.238,17.250 37.152,16.980 M 37.152,16.980 37.489,16.465 M 44.786,16.113 45.988,17.830 M 45.988,17.830 46.843,17.833 M 55.677,18.881 55.966,11.148 M 55.677,18.881 60.765,14.969 M 75.046,13.289 82.529,17.392 M 82.529,17.392 82.761,12.018 M 45.589,19.040 45.988,17.830 M 83.798,18.411 89.363,16.512 M 82.529,17.392 82.577,17.933 M 82.577,17.933 83.798,18.411 M 49.266,16.361 53.782,19.664 M 53.782,19.664 53.820,19.650 M 53.820,19.650 54.424,19.350 M 52.527,15.217 54.424,19.350 M 54.424,19.350 55.217,19.448 M 55.217,19.448 55.677,18.881 M 65.101,20.402 65.696,14.474 M 46.843,17.833 51.527,20.769 M 51.527,20.769 53.782,19.664 M 75.046,13.289 78.881,20.059 M 78.881,20.059 79.860,19.975 M 79.860,19.975 82.577,17.933 M 18.264,16.204 21.889,20.038 M 21.889,20.038 25.022,14.761 M 37.152,16.980 39.474,21.909 M 0.910,20.773 3.098,18.502 M 0.910,20.773 2.903,21.766 M 3.098,18.502 9.741,21.782 M 5.234,15.822 9.741,21.782 M 29.816,22.715 30.586,19.709 M 39.474,21.909 40.504,22.572 M 40.504,22.572 45.589,19.040 M 24.733,21.876 29.862,17.870 M 24.733,21.876 29.816,22.715 M 2.903,21.766 5.142,25.152 M 35.583,24.372 39.474,21.909 M 32.896,23.524 35.473,18.117 M 32.896,23.524 33.277,23.749 M 33.277,23.749 35.583,24.372 M 5.142,25.152 7.171,24.971 M 74.354,21.951 78.881,20.059 M 24.064,21.842 29.192,15.171 M 24.064,21.842 24.733,21.876 M 2.903,21.766 10.250,22.330 M 9.741,21.782 10.250,22.330 M 70.582,14.479 72.966,21.777 M 72.966,21.777 74.354,21.951 M 7.171,24.971 10.342,22.377 M 10.250,22.330 10.342,22.377 M 29.816,22.715 30.977,23.700 M 30.977,23.700 32.896,23.524 M 30.958,23.777 30.977,23.700 M 21.889,20.038 22.421,21.598 M 65.101,20.402 71.707,22.804 M 71.707,22.804 72.966,21.777 M 22.421,21.598 23.158,22.009 M 23.158,22.009 24.064,21.842 M 10.342,22.377 11.561,22.433 M 11.561,22.433 13.504,16.158 M 49.993,24.737 51.527,20.769 M 45.589,19.040 47.232,24.902 M 47.232,24.902 49.993,24.737 M 83.798,18.411 88.186,24.278 M 3.862,27.056 5.142,25.152 M 0.000,21.010 0.910,20.773 M 0.000,24.158 3.862,27.056 M 53.588,26.568 53.820,19.650 M 49.993,24.737 52.091,26.513 M 52.091,26.513 53.588,26.568 M 3.862,27.056 4.009,27.830 M 40.504,22.572 41.975,26.069 M 53.588,26.568 56.009,26.921 M 4.009,27.830 4.761,28.768 M 41.975,26.069 44.846,26.883 M 44.846,26.883 47.232,24.902 M 60.702,24.963 60.765,14.969 M 60.702,24.963 65.101,20.402 M 11.561,22.433 13.873,25.461 M 50.970,29.291 52.091,26.513 M 60.621,25.109 60.702,24.963 M 60.621,25.109 64.498,26.627 M 55.217,19.448 60.253,25.252 M 60.253,25.252 60.621,25.109 M 13.873,25.461 14.731,25.942 M 14.731,25.942 22.421,21.598 M 14.731,25.942 14.902,26.446 M 14.902,26.446 19.751,29.556 M 56.009,26.921 59.690,25.967 M 59.690,25.967 60.253,25.252 M 4.761,28.768 6.807,29.349 M 6.807,29.349 7.171,24.971 M 64.498,26.627 69.277,27.370 M 69.277,27.370 71.707,22.804 M 19.751,29.556 24.590,28.252 M 23.158,22.009 24.590,28.252 M 79.860,19.975 82.439,27.797 M 82.439,27.797 88.186,24.278 M 14.617,29.154 14.902,26.446 M 13.298,30.751 14.617,29.154 M 6.807,29.349 7.635,30.019 M 7.635,30.019 13.873,25.461 M 19.751,29.556 19.784,31.505 M 35.583,24.372 37.736,29.567 M 37.736,29.567 41.975,26.069 M 2.307,31.678 4.761,28.768 M 50.970,29.291 53.148,32.291 M 18.245,32.929 19.784,31.505 M 14.617,29.154 16.171,32.550 M 24.590,28.252 26.224,30.060 M 26.224,30.060 30.958,23.777 M 16.171,32.550 16.326,32.655 M 16.326,32.655 18.245,32.929 M 53.148,32.291 53.840,32.505 M 53.840,32.505 56.009,26.921 M 19.784,31.505 22.055,33.268 M 13.298,30.751 13.990,34.664 M 13.990,34.664 16.171,32.550 M 0.000,28.933 4.009,27.830 M 0.000,31.120 2.307,31.678 M 44.846,26.883 46.314,32.108 M 46.314,32.108 50.970,29.291 M 88.186,24.278 92.983,24.831 M 46.249,32.566 46.314,32.108 M 22.055,33.268 27.094,31.977 M 26.224,30.060 27.094,31.977 M 2.307,31.678 4.426,34.417 M 9.802,34.059 13.298,30.751 M 3.953,34.968 4.426,34.417 M 3.869,35.156 3.953,34.968 M 36.474,32.155 37.736,29.567 M 74.354,21.951 79.560,31.342 M 4.426,34.417 8.078,33.820 M 7.635,30.019 8.078,33.820 M 47.581,34.016 53.148,32.291 M 33.277,23.749 34.590,32.422 M 34.590,32.422 36.474,32.155 M 8.078,33.820 8.192,33.908 M 8.192,33.908 9.802,34.059 M 79.560,31.342 80.608,31.310 M 80.608,31.310 82.439,27.797 M 41.202,34.223 46.249,32.566 M 46.249,32.566 47.417,34.009 M 47.417,34.009 47.581,34.016 M 53.840,32.505 55.390,34.709 M 36.474,32.155 38.345,33.565 M 38.345,33.565 41.202,34.223 M 47.581,34.016 53.068,36.222 M 53.068,36.222 54.525,35.861 M 54.525,35.861 55.390,34.709 M 55.390,34.709 60.068,34.185 M 59.690,25.967 60.068,34.185 M 30.958,23.777 32.497,33.033 M 32.497,33.033 34.590,32.422 M 51.687,37.834 53.068,36.222 M 9.802,34.059 12.898,36.200 M 12.898,36.200 13.990,34.664 M 75.519,33.118 79.560,31.342 M 18.245,32.929 19.845,36.324 M 19.845,36.324 22.055,33.268 M 32.372,33.104 32.497,33.033 M 69.277,27.370 71.688,33.127 M 71.688,33.127 75.519,33.118 M 85.970,34.383 92.983,29.213 M 27.094,31.977 29.168,33.905 M 29.168,33.905 32.372,33.104 M 80.608,31.310 84.151,34.435 M 84.151,34.435 85.970,34.383 M 48.599,38.217 51.687,37.834 M 16.326,32.655 16.913,37.640 M 47.417,34.009 47.498,37.747 M 47.498,37.747 48.599,38.217 M 12.898,36.200 13.736,37.669 M 85.970,34.383 90.278,37.894 M 69.713,35.171 71.688,33.127 M 69.713,35.171 72.618,39.437 M 13.736,37.669 15.668,37.989 M 15.668,37.989 16.913,37.640 M 16.913,37.640 19.617,37.715 M 19.617,37.715 19.845,36.324 M 75.519,33.118 76.828,39.125 M 12.445,39.350 13.736,37.669 M 76.828,39.125 83.548,37.680 M 83.548,37.680 84.151,34.435 M 41.202,34.223 42.835,39.529 M 72.618,39.437 76.850,40.238 M 76.828,39.125 76.850,40.238 M 7.686,40.214 8.192,33.908 M 7.686,40.214 8.111,40.478 M 8.111,40.478 12.445,39.350 M 66.175,37.327 69.713,35.171 M 8.111,40.478 8.202,40.717 M 64.498,26.627 64.846,37.485 M 64.846,37.485 66.175,37.327 M 3.869,35.156 4.164,40.818 M 4.164,40.818 7.686,40.214 M 42.835,39.529 45.163,40.689 M 45.163,40.689 47.498,37.747 M 60.068,34.185 63.859,37.741 M 63.859,37.741 64.846,37.485 M 38.092,41.151 38.345,33.565 M 38.092,41.151 42.835,39.529 M 89.363,16.512 92.983,17.630 M 76.850,40.238 77.186,41.699 M 63.350,38.629 63.859,37.741 M 83.310,40.914 83.548,37.680 M 54.525,35.861 55.345,41.514 M 37.779,41.558 38.092,41.151 M 83.310,40.914 88.310,42.603 M 88.310,42.603 90.278,37.894 M 51.687,37.834 52.757,42.190 M 52.757,42.190 55.345,41.514 M 2.962,41.658 4.164,40.818 M 32.372,33.104 35.970,41.920 M 82.758,41.589 83.310,40.914 M 45.163,40.689 45.425,42.009 M 28.320,40.833 35.970,41.920 M 77.186,41.699 80.040,42.487 M 80.040,42.487 82.758,41.589 M 35.970,41.920 36.128,42.024 M 36.128,42.024 37.779,41.558 M 48.599,38.217 52.207,42.510 M 52.207,42.510 52.757,42.190 M 26.771,40.234 29.168,33.905 M 26.771,40.234 28.320,40.833 M 45.425,42.009 51.331,43.591 M 51.331,43.591 52.207,42.510 M 44.568,44.010 45.425,42.009 M 88.310,42.603 89.298,44.119 M 55.345,41.514 58.830,42.627 M 58.830,42.627 63.350,38.629 M 72.618,39.437 73.887,44.194 M 73.887,44.194 77.186,41.699 M 88.844,45.217 89.298,44.119 M 24.985,41.710 26.771,40.234 M 19.617,37.715 23.943,41.905 M 23.943,41.905 24.985,41.710 M 73.600,44.605 73.887,44.194 M 66.175,37.327 71.158,45.083 M 71.158,45.083 73.600,44.605 M 0.000,37.546 3.869,35.156 M 0.000,41.393 2.962,41.658 M 37.779,41.558 42.096,46.082 M 42.096,46.082 44.568,44.010 M 73.600,44.605 75.785,47.237 M 58.830,42.627 58.882,45.818 M 75.284,48.039 75.785,47.237 M 15.668,37.989 16.348,45.521 M 75.153,49.907 75.284,48.039 M 7.678,47.128 8.202,40.717 M 2.962,41.658 5.187,47.100 M 5.187,47.100 7.378,47.221 M 7.378,47.221 7.678,47.128 M 4.713,47.518 5.187,47.100 M 12.445,39.350 13.955,46.103 M 13.955,46.103 16.348,45.521 M 8.202,40.717 13.728,46.251 M 13.728,46.251 13.955,46.103 M 16.348,45.521 20.166,45.738 M 20.166,45.738 23.943,41.905 M 2.987,48.361 4.713,47.518 M 28.320,40.833 34.474,47.474 M 34.474,47.474 36.128,42.024 M 34.472,47.567 34.474,47.474 M 7.678,47.128 12.667,47.475 M 12.667,47.475 13.728,46.251 M 75.785,47.237 79.108,48.640 M 79.108,48.640 80.040,42.487 M 2.161,50.345 2.987,48.361 M 2.161,50.345 3.848,52.137 M 51.071,48.871 51.331,43.591 M 51.071,48.871 58.882,45.818 M 3.848,52.137 5.562,52.409 M 4.713,47.518 5.562,52.409 M 82.758,41.589 84.869,49.282 M 84.869,49.282 88.844,45.217 M 44.568,44.010 50.723,49.546 M 50.723,49.546 51.071,48.871 M 7.378,47.221 7.610,52.789 M 24.985,41.710 29.963,50.296 M 29.963,50.296 34.472,47.567 M 20.166,45.738 21.290,50.982 M 5.562,52.409 6.677,53.376 M 6.677,53.376 7.610,52.789 M 88.844,45.217 92.983,50.505 M 0.000,47.056 2.987,48.361 M 50.472,50.908 50.723,49.546 M 50.472,50.908 51.307,51.449 M 40.946,50.811 42.096,46.082 M 21.290,50.982 22.087,52.131 M 34.472,47.567 40.851,50.881 M 40.851,50.881 40.946,50.811 M 29.507,51.606 29.963,50.296 M 40.946,50.811 49.669,51.357 M 49.669,51.357 50.472,50.908 M 63.350,38.629 66.945,50.481 M 66.945,50.481 71.158,45.083 M 2.329,54.843 3.848,52.137 M 7.610,52.789 12.903,52.750 M 12.667,47.475 12.903,52.750 M 23.548,52.809 29.507,51.606 M 22.087,52.131 23.480,52.801 M 23.480,52.801 23.548,52.809 M 12.903,52.750 13.062,53.022 M 13.062,53.022 21.290,50.982 M 72.408,53.518 75.153,49.907 M 71.828,53.426 72.408,53.518 M 70.660,52.938 75.284,48.039 M 70.660,52.938 71.828,53.426 M 29.507,51.606 30.392,53.310 M 0.510,54.918 2.329,54.843 M 79.108,48.640 81.752,52.143 M 81.752,52.143 84.049,51.943 M 84.049,51.943 84.869,49.282 M 29.115,56.225 29.908,55.506 M 29.908,55.506 30.392,53.310 M 2.329,54.843 5.851,55.857 M 5.851,55.857 6.677,53.376 M 0.000,52.096 2.161,50.345 M 0.000,54.733 0.510,54.918 M 23.548,52.809 25.832,57.627 M 25.832,57.627 29.115,56.225 M 72.408,53.518 77.664,54.672 M 75.153,49.907 77.664,54.672 M 84.049,51.943 86.279,53.448 M 86.279,53.448 92.983,51.574 M 66.371,52.091 66.945,50.481 M 66.371,52.091 70.660,52.938 M 77.664,54.672 78.469,54.892 M 78.469,54.892 81.752,52.143 M 22.386,58.475 23.480,52.801 M 5.851,55.857 6.423,57.440 M 51.307,51.449 59.020,54.844 M 86.279,53.448 87.019,56.328 M 87.019,56.328 87.254,56.769 M 29.908,55.506 31.187,59.378 M 47.582,58.010 49.669,51.357 M 22.386,58.475 23.873,59.790 M 90.862,62.048 91.023,60.399 M 23.873,59.790 25.385,59.738 M 25.385,59.738 25.832,57.627 M 47.582,58.010 48.514,59.111 M 59.020,54.844 63.517,53.873 M 58.882,45.818 63.517,53.873 M 63.517,53.873 63.609,53.898 M 63.609,53.898 66.371,52.091 M 81.980,60.717 87.019,56.328 M 87.254,56.769 87.777,59.414 M 87.777,59.414 91.023,60.399 M 63.609,53.898 63.936,55.126 M 48.514,59.111 52.448,59.880 M 51.307,51.449 52.448,59.880 M 81.980,60.717 82.879,61.582 M 30.392,53.310 39.093,56.901 M 39.093,56.901 40.851,50.881 M 55.173,59.676 59.020,54.844 M 55.045,59.746 55.173,59.676 M 52.448,59.880 52.985,60.139 M 52.985,60.139 55.045,59.746 M 0.510,54.918 3.260,60.425 M 3.260,60.425 4.558,60.290 M 4.558,60.290 6.423,57.440 M 25.385,59.738 27.061,60.991 M 27.061,60.991 29.115,56.225 M 55.045,59.746 55.306,62.624 M 6.423,57.440 13.795,58.326 M 13.062,53.022 13.795,58.326 M 4.558,60.290 5.531,61.616 M 16.033,59.072 22.087,52.131 M 16.033,59.072 22.386,58.475 M 77.882,59.821 78.469,54.892 M 77.882,59.821 81.980,60.717 M 82.879,61.582 87.235,61.674 M 87.235,61.674 87.777,59.414 M 63.936,55.126 73.107,61.377 M 71.828,53.426 73.107,61.377 M 39.093,56.901 39.424,58.580 M 39.424,58.580 47.582,58.010 M 87.235,61.674 87.325,62.267 M 73.107,61.377 73.270,61.570 M 27.061,60.991 28.057,62.284 M 28.057,62.284 31.187,59.378 M 87.325,62.267 88.560,63.587 M 88.560,63.587 90.862,62.048 M 5.098,64.646 5.531,61.616 M 13.795,58.326 14.827,59.766 M 14.827,59.766 16.033,59.072 M 76.789,61.469 77.882,59.821 M 21.495,63.535 23.873,59.790 M 76.515,61.713 76.789,61.469 M 73.270,61.570 75.630,62.088 M 75.630,62.088 76.515,61.713 M 5.531,61.616 10.355,63.470 M 10.355,63.470 10.853,63.396 M 76.789,61.469 82.962,65.217 M 82.879,61.582 82.962,65.217 M 31.187,59.378 38.739,60.915 M 38.739,60.915 39.424,58.580 M 10.853,63.396 14.836,61.329 M 14.827,59.766 14.836,61.329 M 83.984,65.613 87.325,62.267 M 83.984,65.613 84.502,66.120 M 84.502,66.120 86.842,66.906 M 82.962,65.217 83.183,65.582 M 83.183,65.582 83.984,65.613 M 5.098,64.646 5.945,66.678 M 5.945,66.678 6.618,66.774 M 6.618,66.774 10.355,63.470 M 14.836,61.329 16.238,63.323 M 16.238,63.323 21.495,63.535 M 74.491,66.663 75.630,62.088 M 69.322,66.764 71.112,67.510 M 71.112,67.510 74.208,67.210 M 74.208,67.210 74.491,66.663 M 66.934,65.472 73.270,61.570 M 66.934,65.472 69.322,66.764 M 86.842,66.906 90.663,66.426 M 88.560,63.587 90.663,66.426 M 0.000,64.690 5.098,64.646 M 51.078,66.368 52.985,60.139 M 74.208,67.210 74.583,68.540 M 0.000,62.095 3.260,60.425 M 55.306,62.624 55.323,67.325 M 55.288,67.333 55.323,67.325 M 55.306,62.624 60.774,66.199 M 74.491,66.663 80.182,68.245 M 76.515,61.713 80.182,68.245 M 46.989,66.278 48.514,59.111 M 46.989,66.278 51.078,66.368 M 60.774,66.199 61.221,66.000 M 55.173,59.676 61.221,66.000 M 0.000,66.252 3.057,68.508 M 3.057,68.508 5.945,66.678 M 38.739,60.915 38.813,64.101 M 69.322,66.764 69.980,70.589 M 55.323,67.325 58.061,67.483 M 58.061,67.483 60.774,66.199 M 51.078,66.368 53.042,67.581 M 53.042,67.581 55.288,67.333 M 21.495,63.535 26.229,66.842 M 20.602,69.267 26.229,66.842 M 80.182,68.245 80.485,68.579 M 80.485,68.579 83.183,65.582 M 90.663,66.426 92.002,67.286 M 63.936,55.126 64.009,65.574 M 64.009,65.574 66.934,65.472 M 61.221,66.000 63.969,65.625 M 63.969,65.625 64.009,65.574 M 69.980,70.589 71.187,71.205 M 71.112,67.510 71.187,71.205 M 26.229,66.842 28.414,67.211 M 28.057,62.284 28.414,67.211 M 38.813,64.101 44.284,67.511 M 44.284,67.511 46.989,66.278 M 16.238,63.323 16.592,68.915 M 16.592,68.915 20.602,69.267 M 63.969,65.625 64.649,69.515 M 64.649,69.515 69.980,70.589 M 71.187,71.205 71.776,72.182 M 71.776,72.182 74.583,68.540 M 84.502,66.120 85.537,71.495 M 85.537,71.495 86.842,66.906 M 89.298,44.119 92.983,43.772 M 90.278,37.894 92.983,38.110 M 6.618,66.774 9.941,71.368 M 9.941,71.368 10.853,63.396 M 32.655,68.885 38.813,64.101 M 32.655,68.885 33.877,70.578 M 86.527,72.310 92.002,67.286 M 86.527,72.310 88.265,73.070 M 15.427,71.176 16.592,68.915 M 28.414,67.211 30.332,69.103 M 30.332,69.103 32.655,68.885 M 33.877,70.578 38.704,74.262 M 85.537,71.495 85.551,72.586 M 85.551,72.586 86.527,72.310 M 64.634,72.467 64.649,69.515 M 92.002,67.286 92.983,67.321 M 90.862,62.048 92.983,63.436 M 3.057,68.508 3.636,73.004 M 51.991,73.746 53.042,67.581 M 20.602,69.267 23.636,74.145 M 9.941,71.368 10.339,72.516 M 44.284,67.511 44.833,72.533 M 44.833,72.533 51.991,73.746 M 51.991,73.746 52.315,74.149 M 15.427,71.176 22.366,74.858 M 22.366,74.858 23.636,74.145 M 10.339,72.516 13.944,72.554 M 13.944,72.554 15.427,71.176 M 44.664,72.880 44.833,72.533 M 37.225,76.854 38.704,74.262 M 37.225,76.854 37.308,77.091 M 33.877,70.578 34.811,76.722 M 34.811,76.722 37.225,76.854 M 52.315,74.149 55.733,74.993 M 55.288,67.333 55.733,74.993 M 38.704,74.262 42.361,74.716 M 42.361,74.716 44.664,72.880 M 83.944,73.769 85.551,72.586 M 23.636,74.145 27.940,73.482 M 27.940,73.482 30.332,69.103 M 80.304,73.328 80.485,68.579 M 80.304,73.328 83.944,73.769 M 27.940,73.482 28.031,73.998 M 74.583,68.540 79.871,73.547 M 79.871,73.547 80.304,73.328 M 21.187,77.140 22.366,74.858 M 79.260,74.189 79.871,73.547 M 36.469,79.013 37.308,77.091 M 3.636,73.004 6.865,74.782 M 6.865,74.782 10.339,72.516 M 50.860,77.875 52.315,74.149 M 13.944,72.554 15.321,76.471 M 15.321,76.471 21.187,77.140 M 55.733,74.993 57.632,75.724 M 23.949,79.123 28.031,73.998 M 36.126,79.294 36.469,79.013 M 21.187,77.140 21.332,78.070 M 57.632,75.724 58.025,75.817 M 58.025,75.817 58.061,67.483 M 35.118,79.208 36.126,79.294 M 36.469,79.013 39.508,79.009 M 37.308,77.091 39.508,79.009 M 76.603,75.864 79.260,74.189 M 33.666,78.686 34.811,76.722 M 33.666,78.686 35.118,79.208 M 44.664,72.880 47.628,78.791 M 47.628,78.791 50.860,77.875 M 33.096,78.934 33.666,78.686 M 50.860,77.875 52.128,79.646 M 52.128,79.646 57.632,75.724 M 64.634,72.467 70.451,76.554 M 21.332,78.070 21.931,79.495 M 21.931,79.495 23.949,79.123 M 36.126,79.294 37.329,80.930 M 28.031,73.998 29.475,78.337 M 29.475,78.337 33.096,78.934 M 58.025,75.817 59.419,76.889 M 59.419,76.889 64.634,72.467 M 29.455,78.386 29.475,78.337 M 16.767,80.174 21.332,78.070 M 37.329,80.930 40.611,79.578 M 39.508,79.009 40.611,79.578 M 71.776,72.182 71.993,76.832 M 71.993,76.832 76.603,75.864 M 70.451,76.554 71.945,76.868 M 71.945,76.868 71.993,76.832 M 40.611,79.578 41.343,79.627 M 41.343,79.627 42.361,74.716 M 14.981,79.527 15.321,76.471 M 33.096,78.934 33.797,81.802 M 83.944,73.769 86.949,79.178 M 23.949,79.123 27.461,80.750 M 27.461,80.750 29.455,78.386 M 14.981,79.527 15.109,79.921 M 15.109,79.921 16.767,80.174 M 29.455,78.386 31.291,82.770 M 31.291,82.770 33.797,81.802 M 6.530,79.110 6.865,74.782 M 6.530,79.110 14.981,79.527 M 36.564,82.489 37.329,80.930 M 0.000,34.389 3.953,34.968 M 6.423,79.377 6.530,79.110 M 5.847,79.917 6.423,79.377 M 35.118,79.208 36.092,82.799 M 36.092,82.799 36.564,82.489 M 52.128,79.646 52.904,82.037 M 5.478,80.919 5.847,79.917 M 5.478,80.919 7.599,83.666 M 86.949,79.178 91.158,80.338 M 91.158,80.338 92.983,79.824 M 88.265,73.070 92.983,79.520 M 16.767,80.174 21.602,82.322 M 21.602,82.322 21.931,79.495 M 33.797,81.802 35.380,83.500 M 35.380,83.500 36.092,82.799 M 35.373,83.549 35.380,83.500 M 7.599,83.666 9.735,85.041 M 7.599,83.666 8.979,85.486 M 8.979,85.486 9.735,85.041 M 71.749,82.111 71.945,76.868 M 4.436,83.178 5.478,80.919 M 52.904,82.037 57.973,82.102 M 9.735,85.041 11.535,83.996 M 6.423,79.377 11.535,83.996 M 61.614,81.531 70.451,76.554 M 79.260,74.189 82.669,83.217 M 82.669,83.217 86.949,79.178 M 57.973,82.102 60.145,81.160 M 59.419,76.889 60.145,81.160 M 60.145,81.160 60.655,81.544 M 60.655,81.544 61.614,81.531 M 76.603,75.864 79.309,84.064 M 79.309,84.064 82.255,84.040 M 82.255,84.040 82.669,83.217 M 71.749,82.111 77.735,84.881 M 77.735,84.881 79.309,84.064 M 88.890,85.844 91.158,80.338 M 61.614,81.531 69.393,84.603 M 69.393,84.603 69.843,84.535 M 69.843,84.535 71.749,82.111 M 11.535,83.996 14.138,84.743 M 14.138,84.743 15.109,79.921 M 36.564,82.489 43.747,83.926 M 41.343,79.627 43.747,83.926 M 60.655,81.544 61.329,85.857 M 49.261,85.046 52.904,82.037 M 49.261,85.046 49.740,85.555 M 66.445,87.701 69.393,84.603 M 14.138,84.743 14.376,85.202 M 61.329,85.857 65.422,87.996 M 65.422,87.996 66.445,87.701 M 88.890,85.844 90.219,87.610 M 35.373,83.549 39.073,86.980 M 39.073,86.980 44.064,84.314 M 43.747,83.926 44.064,84.314 M 69.843,84.535 71.129,87.359 M 71.129,87.359 76.868,87.687 M 76.868,87.687 77.735,84.881 M 45.430,84.618 47.628,78.791 M 45.430,84.618 49.261,85.046 M 82.255,84.040 84.045,86.727 M 84.045,86.727 88.890,85.844 M 44.064,84.314 45.237,84.690 M 45.237,84.690 45.430,84.618 M 82.103,89.440 83.901,87.160 M 83.901,87.160 84.017,87.054 M 84.017,87.054 84.045,86.727 M 21.602,82.322 22.573,85.639 M 49.740,85.555 54.733,88.157 M 54.733,88.157 57.973,82.102 M 12.704,88.131 14.376,85.202 M 71.129,87.359 71.144,88.702 M 14.376,85.202 19.137,86.828 M 19.137,86.828 22.573,85.639 M 76.868,87.687 77.013,88.950 M 6.178,88.292 8.979,85.486 M 22.573,85.639 25.121,86.443 M 25.121,86.443 27.461,80.750 M 79.171,90.673 82.103,89.440 M 18.527,89.575 19.137,86.828 M 77.013,88.950 77.706,89.790 M 77.706,89.790 83.901,87.160 M 31.135,87.717 35.373,83.549 M 71.144,88.702 73.915,90.737 M 73.915,90.737 77.013,88.950 M 30.468,87.646 31.291,82.770 M 30.468,87.646 31.135,87.717 M 4.244,87.977 4.436,83.178 M 4.244,87.977 6.178,88.292 M 79.171,90.673 81.642,91.744 M 81.642,91.744 82.103,89.440 M 60.006,89.680 61.329,85.857 M 77.706,89.790 78.125,90.651 M 78.125,90.651 79.171,90.673 M 3.509,88.514 4.244,87.977 M 54.733,88.157 55.428,89.866 M 55.428,89.866 60.006,89.680 M 12.704,88.131 16.328,91.553 M 16.328,91.553 18.527,89.575 M 18.527,89.575 19.629,91.937 M 0.000,73.698 3.636,73.004 M 0.000,79.050 5.847,79.917 M 25.121,86.443 26.959,88.318 M 26.959,88.318 30.468,87.646 M 6.178,88.292 10.427,90.629 M 10.427,90.629 12.704,88.131 M 66.445,87.701 68.869,92.087 M 68.869,92.087 71.144,88.702 M 31.135,87.717 36.422,91.070 M 36.422,91.070 39.073,86.980 M 19.629,91.937 26.576,90.924 M 26.576,90.924 26.959,88.318 M 91.023,60.399 92.983,60.579 M 87.254,56.769 92.983,57.782 M 60.006,89.680 62.035,92.983 M 63.870,92.983 65.422,87.996 M 88.265,73.070 92.983,73.651 M 89.696,12.611 92.983,12.860 M 49.740,85.555 51.038,92.983 M 53.783,92.983 55.428,89.866 M 84.017,87.054 86.529,92.983 M 89.612,92.983 90.219,87.610 M 10.427,90.629 10.859,92.983 M 15.628,92.983 16.328,91.553 M 68.651,92.983 68.869,92.087 M 81.642,91.744 82.295,92.983 M 0.000,82.853 4.436,83.178 M 36.422,91.070 37.031,92.983 M 44.992,92.983 45.237,84.690 M 73.668,92.983 73.915,90.737 M 0.000,88.326 3.509,88.514 M 90.219,87.610 92.983,87.353 M 19.629,91.937 19.687,92.983 M 26.524,92.983 26.576,90.924 M 77.951,92.983 78.125,90.651 M 3.509,88.514 3.551,92.983 M 0.000,5.359 1.451,5.703 M 0.000,13.775 0.693,13.831 M 89.036,6.625 92.983,5.448 "
         style="stroke:#000000;stroke-width:0.26458333333333334"
         id="path162" />
    </pattern>
    <filter
       inkscape:label="Torn Edges"
       inkscape:menu="Distort"
       inkscape:menu-tooltip="Displace the outside of shapes and pictures without altering their content"
       height="1.4"
       y="-0.2"
       width="1.4"
       x="-0.2"
       style="color-interpolation-filters:sRGB"
       id="filter356">
      <feTurbulence
         baseFrequency="0.05"
         numOctaves="5"
         type="fractalNoise"
         result="result91"
         id="feTurbulence350" />
      <feDisplacementMap
         scale="25"
         result="result5"
         xChannelSelector="R"
         in="SourceGraphic"
         in2="result91"
         id="feDisplacementMap352"
         yChannelSelector="A" />
      <feComposite
         in="SourceGraphic"
         operator="atop"
         in2="result5"
         id="feComposite354" />
    </filter>
    <filter
       inkscape:label="Torn Edges"
       inkscape:menu="Distort"
       inkscape:menu-tooltip="Displace the outside of shapes and pictures without altering their content"
       height="1.4"
       y="-0.2"
       width="1.4"
       x="-0.2"
       style="color-interpolation-filters:sRGB"
       id="filter356-7">
      <feTurbulence
         baseFrequency="0.05"
         numOctaves="5"
         type="fractalNoise"
         result="result91"
         id="feTurbulence350-0" />
      <feDisplacementMap
         scale="25"
         result="result5"
         xChannelSelector="R"
         in="SourceGraphic"
         in2="result91"
         id="feDisplacementMap352-3"
         yChannelSelector="A" />
      <feComposite
         in="SourceGraphic"
         operator="atop"
         in2="result5"
         id="feComposite354-9" />
    </filter>
    <pattern
       id="Voronoi877"
       width="80.13212111284315"
       height="62.74496300345621"
       patternUnits="userSpaceOnUse"
       patternTransform="translate(266.85, -6.42559)">
      <path
         d="M 56.265,1.214 57.417,0.000 M 48.932,0.000 50.387,2.162 M 50.387,2.162 56.265,1.214 M 65.609,4.025 66.480,0.000 M 65.609,4.025 67.529,4.371 M 60.662,0.000 62.607,3.601 M 14.178,0.876 14.733,0.000 M 6.173,0.000 7.776,3.091 M 7.776,3.091 14.178,0.876 M 67.529,4.371 71.166,2.419 M 70.819,0.000 71.166,2.419 M 62.607,3.601 64.554,4.908 M 64.554,4.908 65.609,4.025 M 42.322,1.836 42.568,0.000 M 42.322,1.836 42.405,2.143 M 33.550,4.883 34.084,4.332 M 31.992,0.000 34.084,4.332 M 7.224,4.790 7.776,3.091 M 34.084,4.332 35.435,5.074 M 35.435,5.074 42.322,1.836 M 0.533,4.222 5.192,0.000 M 64.554,4.908 64.734,6.434 M 64.734,6.434 67.381,6.961 M 67.381,6.961 67.529,4.371 M 20.272,0.000 21.679,3.982 M 0.533,4.222 3.852,6.061 M 3.852,6.061 7.224,4.790 M 54.552,6.380 56.265,1.214 M 21.679,3.982 23.280,5.338 M 18.212,7.267 21.679,3.982 M 14.312,6.956 18.212,7.267 M 13.670,6.651 14.178,0.876 M 13.670,6.651 14.312,6.956 M 63.707,7.913 64.734,6.434 M 41.265,7.466 42.405,2.143 M 23.280,5.338 26.431,6.334 M 26.431,6.334 30.628,0.000 M 31.994,8.946 33.550,4.883 M 60.173,7.831 62.607,3.601 M 60.173,7.831 63.707,7.913 M 14.312,6.956 15.778,10.118 M 42.405,2.143 48.291,7.465 M 50.387,2.162 50.593,7.244 M 50.593,7.244 54.552,6.380 M 59.110,8.166 59.152,0.000 M 59.110,8.166 60.173,7.831 M 26.431,6.334 27.364,7.723 M 27.364,7.723 33.550,4.883 M 48.291,7.465 50.424,7.433 M 50.424,7.433 50.593,7.244 M 28.232,8.560 31.994,8.946 M 67.381,6.961 69.763,8.671 M 69.649,8.803 69.763,8.671 M 67.380,10.225 69.649,8.803 M 27.364,7.723 27.572,8.337 M 27.572,8.337 28.232,8.560 M 7.224,4.790 10.774,8.617 M 10.774,8.617 13.670,6.651 M 28.232,8.560 30.985,11.747 M 54.552,6.380 58.544,8.698 M 58.544,8.698 59.110,8.166 M 69.763,8.671 73.458,7.362 M 71.166,2.419 73.458,7.362 M 41.265,7.466 45.174,10.093 M 45.174,10.093 48.291,7.465 M 63.707,7.913 64.966,10.607 M 64.966,10.607 67.380,10.225 M 30.985,11.747 34.551,10.914 M 31.994,8.946 34.551,10.914 M 26.709,10.979 27.572,8.337 M 35.435,5.074 37.199,10.197 M 37.199,10.197 37.938,10.283 M 37.938,10.283 41.265,7.466 M 73.458,7.362 76.150,8.597 M 34.551,10.914 35.395,11.254 M 35.395,11.254 37.199,10.197 M 50.424,7.433 51.458,11.619 M 35.281,11.582 35.395,11.254 M 10.069,11.427 10.774,8.617 M 10.069,11.427 11.323,12.524 M 11.323,12.524 15.778,10.118 M 26.709,10.979 30.024,14.193 M 30.024,14.193 30.985,11.747 M 15.778,10.118 19.133,12.966 M 18.212,7.267 19.133,12.966 M 3.852,6.061 4.216,12.761 M 4.216,12.761 5.403,13.066 M 5.403,13.066 10.069,11.427 M 46.957,14.732 51.458,11.619 M 30.024,14.193 30.485,15.257 M 30.485,15.257 35.281,11.582 M 74.662,14.445 76.150,8.597 M 69.599,15.688 69.649,8.803 M 69.599,15.688 74.662,14.445 M 44.309,14.765 45.174,10.093 M 44.309,14.765 46.957,14.732 M 35.281,11.582 35.649,16.860 M 33.451,17.362 35.649,16.860 M 7.139,17.360 9.400,18.760 M 5.403,13.066 6.953,17.316 M 6.953,17.316 7.139,17.360 M 67.380,10.225 68.294,16.378 M 68.294,16.378 68.373,16.404 M 68.373,16.404 69.599,15.688 M 7.139,17.360 14.273,15.882 M 11.323,12.524 14.273,15.882 M 62.233,15.442 64.966,10.607 M 58.341,14.705 58.544,8.698 M 58.341,14.705 62.233,15.442 M 19.133,12.966 19.985,14.779 M 19.985,14.779 23.280,5.338 M 62.233,15.442 62.703,15.811 M 62.703,15.811 68.294,16.378 M 30.274,17.190 30.485,15.257 M 30.274,17.190 33.451,17.362 M 37.938,10.283 42.891,15.813 M 42.891,15.813 44.309,14.765 M 46.957,14.732 51.267,18.365 M 51.458,11.619 56.591,15.648 M 56.591,15.648 58.341,14.705 M 21.458,15.839 26.709,10.979 M 51.267,18.365 52.356,18.488 M 9.400,18.760 15.464,16.834 M 14.273,15.882 15.464,16.834 M 19.985,14.779 20.152,15.829 M 20.152,15.829 21.458,15.839 M 42.341,17.452 42.891,15.813 M 33.451,17.362 34.132,21.432 M 52.356,18.488 55.534,17.588 M 55.534,17.588 56.591,15.648 M 42.341,17.452 46.722,20.791 M 46.722,20.791 51.267,18.365 M 55.534,17.588 55.928,19.301 M 40.690,18.843 42.341,17.452 M 28.216,19.193 30.274,17.190 M 28.216,19.193 34.132,21.432 M 35.649,16.860 39.668,19.264 M 39.668,19.264 40.690,18.843 M 21.458,15.839 27.914,19.375 M 27.914,19.375 28.216,19.193 M 74.662,14.445 77.359,19.391 M 15.464,16.834 17.428,17.942 M 17.428,17.942 20.152,15.829 M 76.302,20.529 77.359,19.391 M 76.302,20.529 76.304,20.558 M 38.436,21.181 39.668,19.264 M 27.911,21.068 27.914,19.375 M 25.876,22.992 27.911,21.068 M 50.422,23.531 52.356,18.488 M 34.132,21.432 35.622,22.804 M 35.622,22.804 38.436,21.181 M 62.703,15.811 63.525,22.697 M 50.422,23.531 51.696,24.426 M 51.696,24.426 55.928,19.301 M 62.948,23.215 63.525,22.697 M 46.722,20.791 47.462,23.789 M 47.462,23.789 50.422,23.531 M 68.373,16.404 69.991,22.461 M 69.991,22.461 76.302,20.529 M 4.952,22.601 6.953,17.316 M 55.928,19.301 57.592,23.494 M 57.592,23.494 62.948,23.215 M 34.691,24.313 35.622,22.804 M 34.691,24.313 35.993,25.988 M 25.553,26.468 25.876,22.992 M 57.264,24.339 57.592,23.494 M 63.525,22.697 69.421,23.416 M 69.421,23.416 69.991,22.461 M 20.719,24.685 25.876,22.992 M 25.553,26.468 29.018,26.784 M 51.696,24.426 53.106,26.387 M 53.106,26.387 53.391,26.521 M 53.391,26.521 57.264,24.339 M 16.456,22.973 17.428,17.942 M 16.456,22.973 20.719,24.685 M 29.018,26.784 30.970,25.963 M 27.911,21.068 30.970,25.963 M 30.970,25.963 31.004,25.981 M 31.004,25.981 34.691,24.313 M 69.421,23.416 69.763,25.760 M 35.993,25.988 36.021,28.727 M 31.004,25.981 31.106,26.371 M 4.952,22.601 10.007,25.123 M 9.400,18.760 10.007,25.123 M 35.993,25.988 40.593,27.463 M 38.436,21.181 40.593,27.463 M 20.719,24.685 23.681,28.052 M 23.681,28.052 25.553,26.468 M 31.106,26.371 32.718,28.628 M 23.681,28.052 23.722,28.323 M 32.718,28.628 33.343,29.102 M 33.343,29.102 36.021,28.727 M 23.722,28.323 26.547,29.519 M 26.547,29.519 29.018,26.784 M 14.916,24.740 16.456,22.973 M 23.041,29.645 23.722,28.323 M 53.391,26.521 53.772,29.771 M 14.916,24.740 20.291,30.797 M 40.690,18.843 45.169,27.917 M 45.169,27.917 47.462,23.789 M 20.291,30.797 20.898,31.050 M 20.898,31.050 23.041,29.645 M 53.158,30.734 53.772,29.771 M 10.007,25.123 12.091,26.601 M 12.091,26.601 14.916,24.740 M 53.158,30.734 53.282,31.666 M 53.772,29.771 59.826,30.218 M 57.264,24.339 59.826,30.218 M 40.593,27.463 42.119,29.374 M 69.763,25.760 74.233,29.785 M 74.233,29.785 76.304,20.558 M 36.021,28.727 39.205,31.040 M 39.205,31.040 42.119,29.374 M 44.931,29.104 45.169,27.917 M 44.931,29.104 53.106,26.387 M 64.332,30.812 69.763,25.760 M 42.119,29.374 44.758,29.462 M 44.758,29.462 44.931,29.104 M 44.758,29.462 45.220,30.232 M 45.220,30.232 53.158,30.734 M 53.282,31.666 56.179,34.055 M 59.826,30.218 61.021,31.217 M 61.021,31.217 63.103,31.095 M 62.948,23.215 63.103,31.095 M 63.103,31.095 63.210,31.137 M 63.210,31.137 64.332,30.812 M 10.989,29.914 11.197,29.791 M 11.197,29.791 12.091,26.601 M 56.179,34.055 59.626,32.878 M 59.626,32.878 61.021,31.217 M 3.255,31.909 10.989,29.914 M 2.811,31.829 3.255,31.909 M 26.547,29.519 28.342,33.238 M 28.342,33.238 31.106,26.371 M 11.197,29.791 12.877,32.111 M 33.343,29.102 34.817,33.877 M 8.553,35.834 10.989,29.914 M 8.278,36.033 8.553,35.834 M 12.877,32.111 15.197,33.962 M 15.197,33.962 20.291,30.797 M 32.859,34.519 34.817,33.877 M 55.186,36.007 56.179,34.055 M 3.255,31.909 5.045,36.289 M 34.817,33.877 36.868,34.086 M 36.868,34.086 39.205,31.040 M 5.045,36.289 5.198,36.410 M 5.198,36.410 8.278,36.033 M 74.233,29.785 75.604,31.815 M 29.860,34.323 32.718,28.628 M 29.860,34.323 32.859,34.519 M 64.332,30.812 72.873,33.850 M 72.873,33.850 75.604,31.815 M 28.342,33.238 28.439,34.481 M 28.439,34.481 29.860,34.323 M 11.379,37.903 12.877,32.111 M 8.553,35.834 10.134,38.271 M 10.134,38.271 11.379,37.903 M 75.604,31.815 80.006,32.210 M 76.304,20.558 80.006,32.210 M 71.760,35.931 72.873,33.850 M 2.483,38.577 5.045,36.289 M 63.210,31.137 65.004,36.945 M 65.004,36.945 71.760,35.931 M 32.859,34.519 33.320,39.107 M 59.149,38.174 59.626,32.878 M 20.898,31.050 21.708,36.456 M 50.453,36.844 53.282,31.666 M 50.453,36.844 55.186,36.007 M 23.041,29.645 26.957,35.869 M 26.957,35.869 28.439,34.481 M 50.418,36.868 50.453,36.844 M 11.379,37.903 13.172,39.379 M 21.708,36.456 26.816,36.081 M 26.816,36.081 26.957,35.869 M 1.019,38.676 2.811,31.829 M 1.019,38.676 2.483,38.577 M 45.220,30.232 46.485,36.046 M 46.485,36.046 50.418,36.868 M 0.000,22.878 4.952,22.601 M 0.000,30.356 2.811,31.829 M 26.816,36.081 26.989,36.620 M 71.760,35.931 71.829,38.342 M 59.149,38.174 64.578,38.255 M 64.578,38.255 65.004,36.945 M 2.483,38.577 5.315,40.040 M 67.984,40.381 71.829,38.342 M 5.315,40.040 6.462,39.669 M 5.198,36.410 6.462,39.669 M 6.462,39.669 6.979,39.817 M 6.979,39.817 7.021,39.826 M 7.021,39.826 8.278,36.033 M 55.186,36.007 57.835,39.424 M 57.835,39.424 59.149,38.174 M 50.418,36.868 51.990,39.912 M 71.829,38.342 72.663,40.136 M 51.990,39.912 52.312,40.220 M 13.172,39.379 18.288,38.064 M 15.197,33.962 18.288,38.064 M 7.021,39.826 8.422,40.624 M 8.422,40.624 10.134,38.271 M 72.663,40.136 72.665,40.808 M 18.288,38.064 18.676,38.296 M 18.676,38.296 21.708,36.456 M 72.663,40.136 80.132,39.081 M 52.064,42.723 52.312,40.220 M 67.984,40.381 70.602,42.716 M 70.602,42.716 72.665,40.808 M 64.578,38.255 65.102,40.813 M 65.102,40.813 67.984,40.381 M 33.320,39.107 39.378,39.534 M 36.868,34.086 39.378,39.534 M 52.312,40.220 57.352,41.044 M 57.352,41.044 57.835,39.424 M 26.989,36.620 30.651,41.408 M 30.651,41.408 33.320,39.107 M 39.378,39.534 39.642,39.830 M 64.962,41.378 65.102,40.813 M 24.741,42.825 26.989,36.620 M 43.508,39.707 46.485,36.046 M 39.642,39.830 41.422,40.008 M 41.422,40.008 43.508,39.707 M 41.394,42.434 41.422,40.008 M 23.944,43.363 24.741,42.825 M 52.064,42.723 53.640,44.693 M 72.665,40.808 74.997,43.779 M 74.997,43.779 80.132,39.459 M 23.944,43.363 27.458,45.580 M 58.345,42.992 64.962,41.378 M 30.651,41.408 30.868,43.052 M 57.352,41.044 58.096,42.958 M 58.096,42.958 58.345,42.992 M 26.589,46.181 27.458,45.580 M 41.394,42.434 42.604,46.294 M 53.640,44.693 57.988,43.153 M 57.988,43.153 58.096,42.958 M 40.919,46.109 41.394,42.434 M 40.919,46.109 42.604,46.294 M 47.030,43.921 51.990,39.912 M 43.508,39.707 46.165,43.639 M 46.165,43.639 47.030,43.921 M 24.741,42.825 30.413,43.694 M 30.413,43.694 30.868,43.052 M 30.868,43.052 36.462,43.878 M 36.462,43.878 39.642,39.830 M 8.422,40.624 10.097,43.827 M 27.458,45.580 30.201,44.561 M 30.201,44.561 30.413,43.694 M 74.997,43.779 75.054,45.142 M 47.030,43.921 49.041,45.340 M 49.041,45.340 52.064,42.723 M 10.097,43.827 10.449,43.951 M 10.449,43.951 13.172,39.379 M 30.201,44.561 30.266,45.154 M 75.054,45.142 76.250,45.904 M 0.000,14.091 4.216,12.761 M 21.736,44.498 23.944,43.363 M 21.736,44.498 22.409,45.409 M 22.409,45.409 26.589,46.181 M 18.676,38.296 19.083,43.643 M 19.083,43.643 21.736,44.498 M 80.006,32.210 80.132,32.242 M 42.604,46.294 44.354,47.191 M 44.354,47.191 46.165,43.639 M 72.098,46.856 75.054,45.142 M 68.604,46.311 70.602,42.716 M 68.604,46.311 72.098,46.856 M 57.447,47.614 57.988,43.153 M 57.447,47.614 57.585,47.872 M 52.145,47.780 53.640,44.693 M 52.145,47.780 57.447,47.614 M 3.723,46.373 6.979,39.817 M 3.723,46.373 10.097,43.827 M 57.585,47.872 59.995,48.840 M 59.995,48.840 64.342,47.882 M 58.345,42.992 64.342,47.882 M 64.962,41.378 66.862,46.843 M 66.862,46.843 68.604,46.311 M 56.772,50.286 57.585,47.872 M 49.041,45.340 50.914,48.538 M 50.914,48.538 52.145,47.780 M 64.342,47.882 65.130,48.004 M 63.516,50.615 65.130,48.004 M 59.979,51.469 59.995,48.840 M 59.979,51.469 63.516,50.615 M 15.418,47.039 19.083,43.643 M 65.130,48.004 66.334,47.698 M 66.334,47.698 66.862,46.843 M 10.449,43.951 14.228,47.284 M 14.228,47.284 15.418,47.039 M 59.852,51.898 59.979,51.469 M 50.698,49.396 50.914,48.538 M 50.698,49.396 56.772,50.286 M 28.392,50.276 30.266,45.154 M 26.589,46.181 26.685,50.532 M 26.685,50.532 28.392,50.276 M 72.098,46.856 73.957,51.293 M 44.034,50.481 44.354,47.191 M 36.462,43.878 37.388,49.775 M 37.388,49.775 40.919,46.109 M 15.418,47.039 19.463,51.791 M 0.645,47.769 3.723,46.373 M 66.334,47.698 68.019,51.684 M 68.019,51.684 73.957,51.293 M 0.000,47.247 5.315,40.040 M 0.000,47.546 0.645,47.769 M 37.365,50.075 37.388,49.775 M 37.365,50.075 44.034,50.481 M 59.852,51.898 62.410,53.470 M 62.410,53.470 63.516,50.615 M 22.409,45.409 24.789,51.259 M 24.789,51.259 26.685,50.532 M 73.957,51.293 75.234,52.172 M 56.655,53.089 56.772,50.286 M 16.822,54.685 19.463,51.791 M 75.234,52.172 76.579,52.263 M 76.250,45.904 76.579,52.263 M 49.841,51.571 50.698,49.396 M 49.841,51.571 56.655,53.089 M 56.655,53.089 56.991,53.501 M 56.991,53.501 59.852,51.898 M 30.266,45.154 36.228,51.286 M 36.228,51.286 37.365,50.075 M 56.991,53.501 57.042,53.796 M 67.902,53.469 68.019,51.684 M 49.396,52.007 49.841,51.571 M 19.463,51.791 22.405,52.975 M 76.579,52.263 77.712,52.797 M 11.076,52.291 14.228,47.284 M 11.076,52.291 16.822,54.685 M 44.034,50.481 46.465,52.603 M 46.465,52.603 49.396,52.007 M 0.645,47.769 5.606,52.486 M 22.405,52.975 23.612,53.049 M 23.612,53.049 24.789,51.259 M 67.902,53.469 71.823,55.590 M 71.823,55.590 75.234,52.172 M 19.027,56.513 22.405,52.975 M 28.392,50.276 33.503,53.023 M 33.503,53.023 35.663,52.354 M 35.663,52.354 36.228,51.286 M 16.822,54.685 17.145,56.399 M 17.145,56.399 17.715,56.804 M 17.715,56.804 19.027,56.513 M 71.823,55.590 71.959,56.525 M 5.606,52.486 9.349,53.840 M 9.349,53.840 11.076,52.291 M 0.000,39.399 1.019,38.676 M 35.663,52.354 38.239,56.532 M 38.239,56.532 38.882,56.741 M 38.882,56.741 44.572,56.690 M 44.572,56.690 46.465,52.603 M 17.715,56.804 17.872,59.289 M 57.042,53.796 62.009,57.211 M 71.959,56.525 73.834,58.629 M 73.834,58.629 77.712,52.797 M 44.572,56.690 44.894,57.640 M 62.009,57.211 63.133,57.123 M 62.410,53.470 63.133,57.123 M 58.862,59.389 62.009,57.211 M 44.776,59.130 44.894,57.640 M 63.133,57.123 64.623,57.749 M 64.623,57.749 67.902,53.469 M 9.349,53.840 10.407,59.039 M 10.407,59.039 17.145,56.399 M 49.396,52.007 53.493,59.964 M 53.493,59.964 57.042,53.796 M 38.882,56.741 41.339,62.687 M 41.339,62.687 44.776,59.130 M 44.894,57.640 53.502,60.245 M 53.493,59.964 53.502,60.245 M 64.623,57.749 66.165,60.724 M 66.165,60.724 71.959,56.525 M 53.502,60.245 53.868,61.342 M 53.868,61.342 58.862,59.389 M 10.261,62.511 10.407,59.039 M 10.261,62.511 17.872,59.289 M 23.612,53.049 27.055,61.773 M 27.055,61.773 33.503,53.023 M 19.027,56.513 25.104,62.745 M 26.966,62.745 27.055,61.773 M 17.872,59.289 23.702,62.745 M 44.776,59.130 47.001,62.745 M 53.675,62.745 53.868,61.342 M 58.862,59.389 61.229,62.745 M 66.165,60.724 66.636,62.745 M 34.955,62.745 38.239,56.532 M 41.319,62.745 41.339,62.687 M 76.250,45.904 80.132,45.783 M 77.359,19.391 80.132,19.499 M 0.000,4.133 0.533,4.222 M 0.000,60.701 5.606,52.486 M 10.199,62.745 10.261,62.511 M 73.834,58.629 75.123,62.745 M 77.712,52.797 80.132,53.282 M 80.132,31.331 80.132,31.331 M 76.150,8.597 80.132,7.325 "
         style="stroke:#000000;stroke-width:0.26458333333333334"
         id="path407" />
    </pattern>
    <filter
       inkscape:label="Pixellize"
       inkscape:menu="Pixel Tools"
       inkscape:menu-tooltip="Reduce or remove antialiasing around shapes"
       style="color-interpolation-filters:sRGB"
       id="filter432">
      <feColorMatrix
         values="1 0 0 0 0 0 1 0 0 0 0 0 1 0 0 0 0 0 1000 -500 "
         id="feColorMatrix430" />
    </filter>
    <filter
       inkscape:label="Leaves"
       inkscape:menu="Scatter"
       inkscape:menu-tooltip="Leaves on the ground in Fall, or living foliage"
       height="1.4"
       y="-0.2"
       width="1.4"
       x="-0.2"
       style="color-interpolation-filters:sRGB"
       id="filter356-76">
      <feTurbulence
         baseFrequency="0.05"
         numOctaves="5"
         type="fractalNoise"
         result="result91"
         id="feTurbulence350-2" />
      <feDisplacementMap
         scale="25"
         result="result5"
         xChannelSelector="R"
         in="SourceGraphic"
         in2="result91"
         id="feDisplacementMap352-7"
         yChannelSelector="A" />
      <feComposite
         in="SourceGraphic"
         operator="atop"
         in2="result5"
         id="feComposite354-0"
         result="fbSourceGraphic" />
      <feColorMatrix
         result="fbSourceGraphicAlpha"
         in="fbSourceGraphic"
         values="0 0 0 -1 0 0 0 0 -1 0 0 0 0 -1 0 0 0 0 1 0"
         id="feColorMatrix466" />
      <feColorMatrix
         id="feColorMatrix468"
         values="1 0 0 0 0 0 1 0 0 0 0 0 1 0 0 0 0 0 1000 -500 "
         in="fbSourceGraphic"
         result="fbSourceGraphic" />
      <feColorMatrix
         result="fbSourceGraphicAlpha"
         in="fbSourceGraphic"
         values="0 0 0 -1 0 0 0 0 -1 0 0 0 0 -1 0 0 0 0 1 0"
         id="feColorMatrix494" />
      <feTurbulence
         id="feTurbulence496"
         baseFrequency="0.09"
         numOctaves="5"
         type="fractalNoise"
         result="result6" />
      <feColorMatrix
         id="feColorMatrix498"
         values="1 0 0 0 0 0 1 0 0 0 0 0 1 0 0 0 0 0 4.9 -2.9 "
         result="result5"
         in="result6" />
      <feComposite
         in2="result5"
         id="feComposite500"
         operator="in"
         in="fbSourceGraphic" />
      <feMorphology
         id="feMorphology502"
         result="result3"
         radius="6"
         operator="dilate" />
      <feTurbulence
         id="feTurbulence504"
         baseFrequency="0.2"
         numOctaves="1"
         type="fractalNoise"
         result="result91" />
      <feDisplacementMap
         in2="result91"
         id="feDisplacementMap506"
         result="result4"
         scale="15"
         yChannelSelector="G"
         xChannelSelector="R"
         in="result3" />
      <feComposite
         in2="result4"
         id="feComposite508"
         operator="arithmetic"
         result="result2"
         k1="0.5"
         k3="1"
         k2="0"
         k4="0" />
      <feConvolveMatrix
         id="feConvolveMatrix510"
         order="3 3"
         kernelMatrix="1 0 0 0 2 0 0 0 -1 "
         targetX="0"
         targetY="0"
         divisor="1.5"
         edgeMode="duplicate"
         in="result2" />
    </filter>
    <filter
       inkscape:label="Cubes"
       inkscape:menu="Scatter"
       inkscape:menu-tooltip="Scattered cubes; adjust the Morphology primitive to vary size"
       height="1.4"
       y="-0.2"
       width="1.4"
       x="-0.2"
       style="color-interpolation-filters:sRGB"
       id="filter356-9">
      <feTurbulence
         baseFrequency="0.05"
         numOctaves="5"
         type="fractalNoise"
         result="result91"
         id="feTurbulence350-9" />
      <feDisplacementMap
         scale="25"
         result="result5"
         xChannelSelector="R"
         in="SourceGraphic"
         in2="result91"
         id="feDisplacementMap352-9"
         yChannelSelector="A" />
      <feComposite
         in="SourceGraphic"
         operator="atop"
         in2="result5"
         id="feComposite354-1"
         result="fbSourceGraphic" />
      <feColorMatrix
         result="fbSourceGraphicAlpha"
         in="fbSourceGraphic"
         values="0 0 0 -1 0 0 0 0 -1 0 0 0 0 -1 0 0 0 0 1 0"
         id="feColorMatrix544" />
      <feTurbulence
         id="feTurbulence546"
         baseFrequency="0.14"
         numOctaves="1"
         type="fractalNoise" />
      <feColorMatrix
         id="feColorMatrix548"
         values="1 0 0 0 0 0 1 0 0 0 0 0 1 0 0 0 0 0 6 -3.5 "
         result="result5" />
      <feComposite
         in2="result5"
         id="feComposite550"
         operator="in"
         in="fbSourceGraphic"
         result="result6" />
      <feMorphology
         id="feMorphology552"
         result="result3"
         radius="5"
         operator="dilate"
         in="result6" />
      <feDisplacementMap
         in2="result3"
         id="feDisplacementMap554"
         result="result4"
         scale="0"
         yChannelSelector="A"
         xChannelSelector="R"
         in="result3" />
      <feComposite
         in2="result4"
         id="feComposite556"
         operator="arithmetic"
         result="result2"
         k1="1"
         k3="1"
         k2="0"
         k4="0" />
      <feBlend
         in2="result2"
         id="feBlend558"
         mode="darken"
         in="result2" />
      <feConvolveMatrix
         id="feConvolveMatrix560"
         order="3 3"
         kernelMatrix="2 0 0 0 1 0 0 0 -1 "
         targetX="1"
         targetY="1"
         divisor="2"
         edgeMode="duplicate" />
    </filter>
    <filter
       inkscape:label="Air Spray"
       inkscape:menu="Scatter"
       inkscape:menu-tooltip="Convert to small scattered particles with some thickness"
       height="2"
       y="-0.5"
       width="2"
       x="-0.5"
       style="color-interpolation-filters:sRGB"
       id="filter356-2">
      <feTurbulence
         baseFrequency="0.05"
         numOctaves="5"
         type="fractalNoise"
         result="result91"
         id="feTurbulence350-3" />
      <feDisplacementMap
         scale="25"
         result="result5"
         xChannelSelector="R"
         in="SourceGraphic"
         in2="result91"
         id="feDisplacementMap352-6"
         yChannelSelector="A" />
      <feComposite
         in="SourceGraphic"
         operator="atop"
         in2="result5"
         id="feComposite354-5"
         result="fbSourceGraphic" />
      <feColorMatrix
         result="fbSourceGraphicAlpha"
         in="fbSourceGraphic"
         values="0 0 0 -1 0 0 0 0 -1 0 0 0 0 -1 0 0 0 0 1 0"
         id="feColorMatrix594" />
      <feGaussianBlur
         id="feGaussianBlur596"
         stdDeviation="0.01"
         result="result1"
         in="fbSourceGraphic" />
      <feBlend
         in2="result1"
         id="feBlend598"
         result="fbSourceGraphic"
         mode="multiply" />
      <feTurbulence
         id="feTurbulence600"
         baseFrequency="0.8"
         type="fractalNoise"
         seed="0"
         numOctaves="3"
         result="result3" />
      <feDisplacementMap
         in2="result3"
         id="feDisplacementMap602"
         in="fbSourceGraphic"
         xChannelSelector="R"
         yChannelSelector="G"
         scale="50"
         result="result2" />
      <feMorphology
         id="feMorphology604"
         radius="1"
         operator="dilate"
         result="result4" />
      <feBlend
         in2="result2"
         id="feBlend606"
         mode="screen" />
    </filter>
    <filter
       inkscape:label="Pointillism"
       inkscape:menu="Scatter"
       inkscape:menu-tooltip="Gives a turbulent pointillist HSL sensitive transparency"
       height="1.2"
       y="-0.1"
       width="1.2"
       x="-0.1"
       style="color-interpolation-filters:sRGB"
       id="filter356-8">
      <feTurbulence
         baseFrequency="0.05"
         numOctaves="5"
         type="fractalNoise"
         result="result91"
         id="feTurbulence350-1" />
      <feDisplacementMap
         scale="25"
         result="result5"
         xChannelSelector="R"
         in="SourceGraphic"
         in2="result91"
         id="feDisplacementMap352-4"
         yChannelSelector="A" />
      <feComposite
         in="SourceGraphic"
         operator="atop"
         in2="result5"
         id="feComposite354-7"
         result="fbSourceGraphic" />
      <feColorMatrix
         result="fbSourceGraphicAlpha"
         in="fbSourceGraphic"
         values="0 0 0 -1 0 0 0 0 -1 0 0 0 0 -1 0 0 0 0 1 0"
         id="feColorMatrix640" />
      <feTurbulence
         id="feTurbulence642"
         seed="50"
         type="fractalNoise"
         baseFrequency="1"
         numOctaves="3"
         result="result1" />
      <feColorMatrix
         id="feColorMatrix644"
         type="luminanceToAlpha"
         in="fbSourceGraphic"
         result="result0" />
      <feColorMatrix
         id="feColorMatrix646"
         result="result2"
         values="1 0 0 0 0 0 1 0 0 0 0 0 1 0 0 0 0 0 0.5 0 " />
      <feComposite
         in2="result2"
         id="feComposite648"
         result="result3"
         operator="over"
         in="result1" />
      <feColorMatrix
         id="feColorMatrix650"
         result="result91"
         values="1 0 0 0 0 0 1 0 0 0 0 0 1 0 0 0 0 0 5 -3.2" />
      <feComposite
         in2="result91"
         id="feComposite652"
         operator="arithmetic"
         k1="1.5"
         result="result93"
         k2="0"
         k3="0"
         k4="0" />
      <feComposite
         in2="result93"
         id="feComposite654"
         in="fbSourceGraphic"
         operator="out"
         result="result4" />
      <feComposite
         in2="result4"
         id="feComposite656"
         operator="arithmetic"
         k2="0.5"
         k1="1"
         result="result94"
         k3="0"
         k4="0" />
      <feDisplacementMap
         in2="result1"
         id="feDisplacementMap658"
         scale="15"
         xChannelSelector="R"
         yChannelSelector="A"
         result="result92" />
    </filter>
    <filter
       inkscape:label="Leaves"
       inkscape:menu="Scatter"
       inkscape:menu-tooltip="Leaves on the ground in Fall, or living foliage"
       height="1.4"
       y="-0.2"
       width="1.4"
       x="-0.2"
       style="color-interpolation-filters:sRGB"
       id="filter356-76-8">
      <feTurbulence
         baseFrequency="0.05"
         numOctaves="5"
         type="fractalNoise"
         result="result91"
         id="feTurbulence350-2-7" />
      <feDisplacementMap
         scale="25"
         result="result5"
         xChannelSelector="R"
         in="SourceGraphic"
         in2="result91"
         id="feDisplacementMap352-7-7"
         yChannelSelector="A" />
      <feComposite
         in="SourceGraphic"
         operator="atop"
         in2="result5"
         id="feComposite354-0-4"
         result="fbSourceGraphic" />
      <feColorMatrix
         result="fbSourceGraphicAlpha"
         in="fbSourceGraphic"
         values="0 0 0 -1 0 0 0 0 -1 0 0 0 0 -1 0 0 0 0 1 0"
         id="feColorMatrix466-4" />
      <feColorMatrix
         id="feColorMatrix468-9"
         values="1 0 0 0 0 0 1 0 0 0 0 0 1 0 0 0 0 0 1000 -500 "
         in="fbSourceGraphic"
         result="fbSourceGraphic" />
      <feColorMatrix
         result="fbSourceGraphicAlpha"
         in="fbSourceGraphic"
         values="0 0 0 -1 0 0 0 0 -1 0 0 0 0 -1 0 0 0 0 1 0"
         id="feColorMatrix494-1" />
      <feTurbulence
         id="feTurbulence496-5"
         baseFrequency="0.09"
         numOctaves="5"
         type="fractalNoise"
         result="result6" />
      <feColorMatrix
         id="feColorMatrix498-5"
         values="1 0 0 0 0 0 1 0 0 0 0 0 1 0 0 0 0 0 4.9 -2.9 "
         result="result5"
         in="result6" />
      <feComposite
         in2="result5"
         id="feComposite500-5"
         operator="in"
         in="fbSourceGraphic" />
      <feMorphology
         id="feMorphology502-8"
         result="result3"
         radius="6"
         operator="dilate" />
      <feTurbulence
         id="feTurbulence504-2"
         baseFrequency="0.2"
         numOctaves="1"
         type="fractalNoise"
         result="result91" />
      <feDisplacementMap
         in2="result91"
         id="feDisplacementMap506-9"
         result="result4"
         scale="15"
         yChannelSelector="G"
         xChannelSelector="R"
         in="result3" />
      <feComposite
         in2="result4"
         id="feComposite508-8"
         operator="arithmetic"
         result="result2"
         k1="0.5"
         k3="1"
         k2="0"
         k4="0" />
      <feConvolveMatrix
         id="feConvolveMatrix510-2"
         order="3 3"
         kernelMatrix="1 0 0 0 2 0 0 0 -1 "
         targetX="0"
         targetY="0"
         divisor="1.5"
         edgeMode="duplicate"
         in="result2"
         result="fbSourceGraphic" />
      <feColorMatrix
         result="fbSourceGraphicAlpha"
         in="fbSourceGraphic"
         values="0 0 0 -1 0 0 0 0 -1 0 0 0 0 -1 0 0 0 0 1 0"
         id="feColorMatrix725" />
      <feTurbulence
         id="feTurbulence727"
         baseFrequency="0.09"
         numOctaves="5"
         type="fractalNoise"
         result="result6" />
      <feColorMatrix
         id="feColorMatrix729"
         values="1 0 0 0 0 0 1 0 0 0 0 0 1 0 0 0 0 0 4.9 -2.9 "
         result="result5"
         in="result6" />
      <feComposite
         in2="result5"
         id="feComposite731"
         operator="in"
         in="fbSourceGraphic" />
      <feMorphology
         id="feMorphology733"
         result="result3"
         radius="6"
         operator="dilate" />
      <feTurbulence
         id="feTurbulence735"
         baseFrequency="0.2"
         numOctaves="1"
         type="fractalNoise"
         result="result91" />
      <feDisplacementMap
         in2="result91"
         id="feDisplacementMap737"
         result="result4"
         scale="15"
         yChannelSelector="G"
         xChannelSelector="R"
         in="result3" />
      <feComposite
         in2="result4"
         id="feComposite739"
         operator="arithmetic"
         result="result2"
         k1="0.5"
         k3="1"
         k2="0"
         k4="0" />
      <feConvolveMatrix
         id="feConvolveMatrix741"
         order="3 3"
         kernelMatrix="1 0 0 0 2 0 0 0 -1 "
         targetX="0"
         targetY="0"
         divisor="1.5"
         edgeMode="duplicate"
         in="result2" />
    </filter>
    <filter
       inkscape:label="Leaves"
       inkscape:menu="Scatter"
       inkscape:menu-tooltip="Leaves on the ground in Fall, or living foliage"
       height="1.4"
       y="-0.2"
       width="1.4"
       x="-0.2"
       style="color-interpolation-filters:sRGB"
       id="filter759">
      <feTurbulence
         baseFrequency="0.05"
         numOctaves="5"
         type="fractalNoise"
         result="result91"
         id="feTurbulence753" />
      <feDisplacementMap
         scale="25"
         result="result5"
         xChannelSelector="R"
         in="SourceGraphic"
         in2="result91"
         id="feDisplacementMap755"
         yChannelSelector="A" />
      <feComposite
         in="SourceGraphic"
         operator="atop"
         in2="result5"
         id="feComposite757"
         result="fbSourceGraphic" />
      <feColorMatrix
         result="fbSourceGraphicAlpha"
         in="fbSourceGraphic"
         values="0 0 0 -1 0 0 0 0 -1 0 0 0 0 -1 0 0 0 0 1 0"
         id="feColorMatrix761" />
      <feTurbulence
         id="feTurbulence763"
         baseFrequency="0.09"
         numOctaves="5"
         type="fractalNoise"
         result="result6" />
      <feColorMatrix
         id="feColorMatrix765"
         values="1 0 0 0 0 0 1 0 0 0 0 0 1 0 0 0 0 0 4.9 -2.9 "
         result="result5"
         in="result6" />
      <feComposite
         in2="result5"
         id="feComposite767"
         operator="in"
         in="fbSourceGraphic" />
      <feMorphology
         id="feMorphology769"
         result="result3"
         radius="6"
         operator="dilate" />
      <feTurbulence
         id="feTurbulence771"
         baseFrequency="0.2"
         numOctaves="1"
         type="fractalNoise"
         result="result91" />
      <feDisplacementMap
         in2="result91"
         id="feDisplacementMap773"
         result="result4"
         scale="15"
         yChannelSelector="G"
         xChannelSelector="R"
         in="result3" />
      <feComposite
         in2="result4"
         id="feComposite775"
         operator="arithmetic"
         result="result2"
         k1="0.5"
         k3="1"
         k2="0"
         k4="0" />
      <feConvolveMatrix
         id="feConvolveMatrix777"
         order="3 3"
         kernelMatrix="1 0 0 0 2 0 0 0 -1 "
         targetX="0"
         targetY="0"
         divisor="1.5"
         edgeMode="duplicate"
         in="result2" />
    </filter>
  </defs>
  <sodipodi:namedview
     id="base"
     pagecolor="#ffffff"
     bordercolor="#666666"
     borderopacity="1.0"
     inkscape:pageopacity="0.0"
     inkscape:pageshadow="2"
     inkscape:zoom="0.46194583"
     inkscape:cx="340.99963"
     inkscape:cy="563.85756"
     inkscape:document-units="mm"
     inkscape:current-layer="layer1"
     inkscape:document-rotation="0"
     showgrid="false"
     inkscape:window-width="1252"
     inkscape:window-height="755"
     inkscape:window-x="0"
     inkscape:window-y="23"
     inkscape:window-maximized="0" />
  <metadata
     id="metadata5">
    <rdf:RDF>
      <cc:Work
         rdf:about="">
        <dc:format>image/svg+xml</dc:format>
        <dc:type
           rdf:resource="http://purl.org/dc/dcmitype/StillImage" />
        <dc:title></dc:title>
      </cc:Work>
    </rdf:RDF>
  </metadata>
  <g
     inkscape:label="Layer 1"
     inkscape:groupmode="layer"
     id="layer1"
     transform="translate(-1.0309819,-1.6037205)">
    <ellipse
       style="fill:#ffffff;stroke-width:2.3667;stroke-linejoin:round"
       id="path10"
       cx="46.869045"
       cy="80.130951"
       rx="7.5595236"
       ry="5.2916665" />
    <g
       inkscape:label="Voronoi"
       id="g22" />
    <g
       inkscape:label="Voronoi"
       id="g34" />
    <g
       inkscape:label="Delaunay"
       id="g47" />
    <g
       inkscape:label="Delaunay"
       id="g201" />
    <circle
       style="fill:#53676c;stroke-width:2.3667;stroke-linejoin:round;filter:url(#filter759)"
       id="path743"
       cx="77.608772"
       cy="78.181511"
       r="54.698421" />
  </g>
</svg>
