<svg version="1.1" viewBox="0.0 0.0 753.488188976378 683.7217847769028" fill="none" stroke="none" stroke-linecap="square" stroke-miterlimit="10" xmlns:xlink="http://www.w3.org/1999/xlink" xmlns="http://www.w3.org/2000/svg"><clipPath id="p.0"><path d="m0 0l753.48816 0l0 683.7218l-753.48816 0l0 -683.7218z" clip-rule="nonzero"/></clipPath><g clip-path="url(#p.0)"><path fill="#000000" fill-opacity="0.0" d="m0 0l753.48816 0l0 683.7218l-753.48816 0z" fill-rule="evenodd"/><path fill="#000000" d="m103.86089 56.257248l8.377953 0l0 38.551186l-8.377953 0z" fill-rule="evenodd"/><path fill="#000000" d="m120.86089 56.257248l8.377953 0l0 38.551178l-8.377953 0z" fill-rule="evenodd"/><path fill="#000000" d="m137.86089 56.257244l8.37796 0l0 38.55118l-8.37796 0z" fill-rule="evenodd"/><path fill="#000000" d="m154.86089 56.257248l8.37796 0l0 38.551178l-8.37796 0z" fill-rule="evenodd"/><path fill="#000000" d="m171.86089 56.257244l8.37796 0l0 38.55118l-8.37796 0z" fill-rule="evenodd"/><path fill="#000000" d="m188.86089 56.225723l8.37796 0l0 38.551178l-8.37796 0z" fill-rule="evenodd"/><path fill="#000000" fill-opacity="0.0" d="m205.24147 86.301834l0 16.535439" fill-rule="evenodd"/><path stroke="#000000" stroke-width="4.0" stroke-linejoin="round" stroke-linecap="butt" d="m205.24147 86.301834l0 16.535439" fill-rule="evenodd"/><path fill="#000000" fill-opacity="0.0" d="m93.22441 101.80708l114.14172 0" fill-rule="evenodd"/><path stroke="#000000" stroke-width="4.0" stroke-linejoin="round" stroke-linecap="butt" d="m93.22441 101.80708l114.14172 0" fill-rule="evenodd"/><path fill="#000000" d="m202.99213 68.14698l11.496063 6.645668l-11.496063 6.6456757z" fill-rule="evenodd"/><path fill="#000000" fill-opacity="0.0" d="m95.24147 86.301834l0 16.535439" fill-rule="evenodd"/><path stroke="#000000" stroke-width="4.0" stroke-linejoin="round" stroke-linecap="butt" d="m95.24147 86.301834l0 16.535439" fill-rule="evenodd"/><path fill="#000000" d="m89.49344 68.14698l11.496063 6.645668l-11.496063 6.6456757z" fill-rule="evenodd"/><path fill="#000000" d="m287.24146 74.85539l0 0c0 -6.035988 4.8861084 -10.929131 10.913391 -10.929131l0 0c2.8944092 0 5.670288 1.1514587 7.7169495 3.201065c2.0466309 2.049614 3.1964417 4.829483 3.1964417 7.7280655l0 0c0 6.0359955 -4.886078 10.929138 -10.913391 10.929138l0 0c-6.0272827 0 -10.913391 -4.8931427 -10.913391 -10.929138z" fill-rule="evenodd"/><path fill="#000000" d="m103.86089 141.66933l8.377953 0l0 38.551178l-8.377953 0z" fill-rule="evenodd"/><path fill="#000000" d="m120.86089 141.66933l8.377953 0l0 38.551178l-8.377953 0z" fill-rule="evenodd"/><path fill="#000000" d="m137.86089 141.66931l8.37796 0l0 38.551193l-8.37796 0z" fill-rule="evenodd"/><path fill="#000000" d="m154.86089 141.66933l8.37796 0l0 38.551178l-8.37796 0z" fill-rule="evenodd"/><path fill="#000000" d="m171.86089 141.66931l8.37796 0l0 38.551193l-8.37796 0z" fill-rule="evenodd"/><path fill="#000000" d="m188.86089 141.6378l8.37796 0l0 38.551178l-8.37796 0z" fill-rule="evenodd"/><path fill="#000000" fill-opacity="0.0" d="m205.24147 171.71391l0 16.53543" fill-rule="evenodd"/><path stroke="#000000" stroke-width="4.0" stroke-linejoin="round" stroke-linecap="butt" d="m205.24147 171.71391l0 16.53543" fill-rule="evenodd"/><path fill="#000000" fill-opacity="0.0" d="m93.22441 187.21916l114.14172 0" fill-rule="evenodd"/><path stroke="#000000" stroke-width="4.0" stroke-linejoin="round" stroke-linecap="butt" d="m93.22441 187.21916l114.14172 0" fill-rule="evenodd"/><path fill="#000000" d="m214.48819 153.55905l-11.496063 6.6456757l11.496063 6.6456604z" fill-rule="evenodd"/><path fill="#000000" fill-opacity="0.0" d="m95.24147 171.71391l0 16.53543" fill-rule="evenodd"/><path stroke="#000000" stroke-width="4.0" stroke-linejoin="round" stroke-linecap="butt" d="m95.24147 171.71391l0 16.53543" fill-rule="evenodd"/><path fill="#000000" d="m100.9895 153.55905l-11.496063 6.6456757l11.496063 6.6456604z" fill-rule="evenodd"/><path fill="#000000" fill-opacity="0.0" d="m89.49344 17.5958l69.76378 0l0 42.015747l-69.76378 0z" fill-rule="evenodd"/><path fill="#000000" d="m103.69656 34.656425q2.078125 0 3.21875 1.5q1.15625 1.484375 1.15625 3.828125l0 0.1875l-7.234375 0l0 0.109375q0 1.390625 0.796875 2.234375q0.8125 0.828125 2.21875 0.828125q1.046875 0 1.671875 -0.484375q0.625 -0.5 0.828125 -1.40625l1.5625 0q-0.328125 1.609375 -1.40625 2.453125q-1.078125 0.84375 -2.71875 0.84375q-1.515625 0 -2.578125 -0.6875q-1.046875 -0.6875 -1.546875 -1.90625q-0.5 -1.234375 -0.5 -2.515625q0 -2.140625 1.28125 -3.5625q1.296875 -1.421875 3.25 -1.421875zm-2.859375 4.109375l5.546875 0q-0.078125 -1.171875 -0.859375 -1.9375q-0.765625 -0.78125 -1.9375 -0.78125q-1.09375 0 -1.875 0.734375q-0.765625 0.734375 -0.875 1.984375zm13.536072 -4.109375q1.75 0 2.53125 0.890625q0.796875 0.890625 0.796875 2.546875l0 6.421875l-1.59375 0l0 -6.59375q0 -0.8125 -0.53125 -1.34375q-0.515625 -0.53125 -1.4375 -0.53125q-1.34375 0 -2.09375 0.828125q-0.75 0.8125 -0.75 2.125l0 5.515625l-1.59375 0l0 -9.640625l1.5 0l0 1.53125l0.03125 0q0.53125 -0.90625 1.296875 -1.328125q0.78125 -0.421875 1.84375 -0.421875zm9.578842 0q0.953125 0 1.796875 0.390625q0.859375 0.375 1.328125 1.109375l0.03125 0l0 -1.28125l1.59375 0l0 13.34375l-1.59375 0l0 -5.0l-0.03125 0q-0.375 0.734375 -1.1875 1.140625q-0.8125 0.390625 -1.890625 0.390625q-2.015625 0 -3.234375 -1.40625q-1.203125 -1.40625 -1.203125 -3.671875q0 -2.234375 1.171875 -3.625q1.1875 -1.390625 3.21875 -1.390625zm-2.71875 5.109375q0 1.5625 0.8125 2.578125q0.8125 1.0 2.1875 1.0q1.390625 0 2.15625 -1.0q0.78125 -1.015625 0.78125 -2.640625q0 -1.640625 -0.796875 -2.640625q-0.78125 -1.015625 -2.265625 -1.015625q-1.359375 0 -2.125 1.0q-0.75 0.984375 -0.75 2.71875z" fill-rule="nonzero"/><path fill="#000000" fill-opacity="0.0" d="m89.49344 74.79265l-32.188976 0l0 0.06299591l-32.188976 0" fill-rule="evenodd"/><path stroke="#000000" stroke-width="1.0" stroke-linejoin="round" stroke-linecap="butt" d="m89.49344 74.79265l-32.188976 0l0 0.06299591l-32.188976 0" fill-rule="evenodd"/><path fill="#000000" fill-opacity="0.0" d="m298.15485 85.78453l0 74.4252l-83.653534 0" fill-rule="evenodd"/><path stroke="#000000" stroke-width="1.0" stroke-linejoin="round" stroke-linecap="butt" d="m298.15485 85.78453l0 74.4252l-83.653534 0" fill-rule="evenodd"/><path fill="#000000" d="m13.619423 68.178474l11.496063 6.6456757l-11.496063 6.645668z" fill-rule="evenodd"/><path fill="#000000" d="m25.115486 153.65355l-11.496063 6.6456604l11.496063 6.6456757z" fill-rule="evenodd"/><path fill="#000000" fill-opacity="0.0" d="m287.24146 74.85539l-36.37648 0l0 -0.06298828l-36.37941 0" fill-rule="evenodd"/><path stroke="#000000" stroke-width="1.0" stroke-linejoin="round" stroke-linecap="butt" d="m287.24146 74.85539l-36.37648 0l0 -0.06298828l-36.37941 0" fill-rule="evenodd"/><path fill="#000000" d="m674.1496 68.20998l11.496094 6.645668l-11.496094 6.645668z" fill-rule="evenodd"/><path fill="#000000" fill-opacity="0.0" d="m674.1496 74.855644l-182.53906 0l0 0.06298828l-182.5318 0" fill-rule="evenodd"/><path stroke="#000000" stroke-width="1.0" stroke-linejoin="round" stroke-linecap="butt" d="m674.1496 74.855644l-182.53906 0l0 0.06298828l-182.5318 0" fill-rule="evenodd"/><path fill="#000000" fill-opacity="0.0" d="m89.49344 105.6168l69.76378 0l0 42.015755l-69.76378 0z" fill-rule="evenodd"/><path fill="#000000" d="m108.30594 119.2243l0 13.312492l-1.59375 0l0 -1.296875l-0.03125 0q-0.375 0.734375 -1.1875 1.140625q-0.8125 0.390625 -1.890625 0.390625q-2.015625 0 -3.234375 -1.40625q-1.203125 -1.40625 -1.203125 -3.6718674q0 -2.234375 1.171875 -3.625q1.171875 -1.390625 3.21875 -1.390625q0.953125 0 1.796875 0.390625q0.859375 0.375 1.328125 1.109375l0.03125 0l0 -4.953125l1.59375 0zm-7.46875 8.5625q0 1.5624924 0.8125 2.5781174q0.8125 1.0 2.1875 1.0q1.390625 0 2.15625 -1.0q0.78125 -1.015625 0.78125 -2.6406174q0 -1.640625 -0.796875 -2.640625q-0.78125 -1.015625 -2.265625 -1.015625q-1.359375 0 -2.125 1.0q-0.75 0.984375 -0.75 2.71875zm11.590179 -8.5625l0 13.312492l-1.59375 0l0 -13.312492l1.59375 0zm6.332321 3.453125q0.953125 0 1.796875 0.390625q0.859375 0.375 1.328125 1.109375l0.03125 0l0 -1.28125l1.59375 0l0 13.343742l-1.59375 0l0 -5.0l-0.03125 0q-0.375 0.734375 -1.1875 1.140625q-0.8125 0.390625 -1.890625 0.390625q-2.015625 0 -3.234375 -1.40625q-1.203125 -1.40625 -1.203125 -3.6718674q0 -2.234375 1.171875 -3.625q1.1875 -1.390625 3.21875 -1.390625zm-2.71875 5.109375q0 1.5624924 0.8125 2.5781174q0.8125 1.0 2.1875 1.0q1.390625 0 2.15625 -1.0q0.78125 -1.015625 0.78125 -2.6406174q0 -1.640625 -0.796875 -2.640625q-0.78125 -1.015625 -2.265625 -1.015625q-1.359375 0 -2.125 1.0q-0.75 0.984375 -0.75 2.71875z" fill-rule="nonzero"/><path fill="#000000" fill-opacity="0.0" d="m89.49344 160.20473l-32.188976 0l0 0.09448242l-32.188976 0" fill-rule="evenodd"/><path stroke="#000000" stroke-width="1.0" stroke-linejoin="round" stroke-linecap="butt" d="m89.49344 160.20473l-32.188976 0l0 0.09448242l-32.188976 0" fill-rule="evenodd"/><path fill="#000000" fill-opacity="0.0" d="m89.49344 260.31366l69.76378 0l0 42.015747l-69.76378 0z" fill-rule="evenodd"/><path fill="#000000" d="m108.30594 273.92114l0 13.3125l-1.59375 0l0 -1.296875l-0.03125 0q-0.375 0.734375 -1.1875 1.140625q-0.8125 0.390625 -1.890625 0.390625q-2.015625 0 -3.234375 -1.40625q-1.203125 -1.40625 -1.203125 -3.671875q0 -2.234375 1.171875 -3.625q1.171875 -1.390625 3.21875 -1.390625q0.953125 0 1.796875 0.390625q0.859375 0.375 1.328125 1.109375l0.03125 0l0 -4.953125l1.59375 0zm-7.46875 8.5625q0 1.5625 0.8125 2.578125q0.8125 1.0 2.1875 1.0q1.390625 0 2.15625 -1.0q0.78125 -1.015625 0.78125 -2.640625q0 -1.640625 -0.796875 -2.640625q-0.78125 -1.015625 -2.265625 -1.015625q-1.359375 0 -2.125 1.0q-0.75 0.984375 -0.75 2.71875zm13.918304 -5.109375q2.078125 0 3.21875 1.5q1.15625 1.484375 1.15625 3.828125l0 0.1875l-7.234375 0l0 0.109375q0 1.390625 0.796875 2.234375q0.8125 0.828125 2.21875 0.828125q1.046875 0 1.671875 -0.484375q0.625 -0.5 0.828125 -1.40625l1.5625 0q-0.328125 1.609375 -1.40625 2.453125q-1.078125 0.84375 -2.71875 0.84375q-1.515625 0 -2.578125 -0.6875q-1.046875 -0.6875 -1.546875 -1.90625q-0.5 -1.234375 -0.5 -2.515625q0 -2.140625 1.28125 -3.5625q1.296875 -1.421875 3.25 -1.421875zm-2.859375 4.109375l5.546875 0q-0.078125 -1.171875 -0.859375 -1.9375q-0.765625 -0.78125 -1.9375 -0.78125q-1.09375 0 -1.875 0.734375q-0.765625 0.734375 -0.875 1.984375zm12.739197 -4.109375q0.953125 0 1.796875 0.390625q0.859375 0.375 1.328125 1.109375l0.03125 0l0 -1.28125l1.59375 0l0 13.34375l-1.59375 0l0 -5.0l-0.03125 0q-0.375 0.734375 -1.1875 1.140625q-0.8125 0.390625 -1.890625 0.390625q-2.015625 0 -3.234375 -1.40625q-1.203125 -1.40625 -1.203125 -3.671875q0 -2.234375 1.171875 -3.625q1.1875 -1.390625 3.21875 -1.390625zm-2.71875 5.109375q0 1.5625 0.8125 2.578125q0.8125 1.0 2.1875 1.0q1.390625 0 2.15625 -1.0q0.78125 -1.015625 0.78125 -2.640625q0 -1.640625 -0.796875 -2.640625q-0.78125 -1.015625 -2.265625 -1.015625q-1.359375 0 -2.125 1.0q-0.75 0.984375 -0.75 2.71875z" fill-rule="nonzero"/><path fill="#000000" d="m25.115486 310.65353l-11.496063 6.645691l11.496063 6.6456604z" fill-rule="evenodd"/><path fill="#000000" d="m103.86089 299.0617l8.377953 0l0 38.551178l-8.377953 0z" fill-rule="evenodd"/><path fill="#000000" d="m120.86089 299.0617l8.377953 0l0 38.551178l-8.377953 0z" fill-rule="evenodd"/><path fill="#000000" d="m137.86089 299.0617l8.37796 0l0 38.551178l-8.37796 0z" fill-rule="evenodd"/><path fill="#000000" d="m154.86089 299.0617l8.37796 0l0 38.551178l-8.37796 0z" fill-rule="evenodd"/><path fill="#000000" d="m171.86089 299.0617l8.37796 0l0 38.551178l-8.37796 0z" fill-rule="evenodd"/><path fill="#000000" d="m188.86089 299.03018l8.37796 0l0 38.551178l-8.37796 0z" fill-rule="evenodd"/><path fill="#000000" fill-opacity="0.0" d="m205.24147 329.1063l0 16.53543" fill-rule="evenodd"/><path stroke="#000000" stroke-width="4.0" stroke-linejoin="round" stroke-linecap="butt" d="m205.24147 329.1063l0 16.53543" fill-rule="evenodd"/><path fill="#000000" fill-opacity="0.0" d="m93.22441 344.61154l114.14172 0" fill-rule="evenodd"/><path stroke="#000000" stroke-width="4.0" stroke-linejoin="round" stroke-linecap="butt" d="m93.22441 344.61154l114.14172 0" fill-rule="evenodd"/><path fill="#000000" d="m214.48819 310.95145l-11.496063 6.6456604l11.496063 6.6456604z" fill-rule="evenodd"/><path fill="#000000" fill-opacity="0.0" d="m95.24147 329.1063l0 16.53543" fill-rule="evenodd"/><path stroke="#000000" stroke-width="4.0" stroke-linejoin="round" stroke-linecap="butt" d="m95.24147 329.1063l0 16.53543" fill-rule="evenodd"/><path fill="#000000" d="m100.9895 310.95145l-11.496063 6.6456604l11.496063 6.6456604z" fill-rule="evenodd"/><path fill="#000000" fill-opacity="0.0" d="m89.49344 317.5971l-32.188976 0l0 -0.28344727l-32.188976 0" fill-rule="evenodd"/><path stroke="#000000" stroke-width="1.0" stroke-linejoin="round" stroke-linecap="butt" d="m89.49344 317.5971l-32.188976 0l0 -0.28344727l-32.188976 0" fill-rule="evenodd"/><path fill="#000000" d="m287.24146 317.45645l0 0c0 -6.0360107 4.8861084 -10.929138 10.913391 -10.929138l0 0c2.8944092 0 5.670288 1.1514587 7.7169495 3.2010803c2.0466309 2.049591 3.1964417 4.829468 3.1964417 7.728058l0 0c0 6.03598 -4.886078 10.929138 -10.913391 10.929138l0 0c-6.0272827 0 -10.913391 -4.893158 -10.913391 -10.929138z" fill-rule="evenodd"/><path fill="#000000" d="m396.18896 299.06302l8.37796 0l0 38.551178l-8.37796 0z" fill-rule="evenodd"/><path fill="#000000" d="m413.18896 299.06302l8.37796 0l0 38.551178l-8.37796 0z" fill-rule="evenodd"/><path fill="#000000" d="m430.18896 299.06302l8.37796 0l0 38.551178l-8.37796 0z" fill-rule="evenodd"/><path fill="#000000" d="m447.18896 299.06302l8.37796 0l0 38.551178l-8.37796 0z" fill-rule="evenodd"/><path fill="#000000" d="m464.18896 299.06302l8.37796 0l0 38.551178l-8.37796 0z" fill-rule="evenodd"/><path fill="#000000" d="m481.18896 299.0315l8.37796 0l0 38.551178l-8.37796 0z" fill-rule="evenodd"/><path fill="#000000" fill-opacity="0.0" d="m497.56955 329.1076l0 16.53543" fill-rule="evenodd"/><path stroke="#000000" stroke-width="4.0" stroke-linejoin="round" stroke-linecap="butt" d="m497.56955 329.1076l0 16.53543" fill-rule="evenodd"/><path fill="#000000" fill-opacity="0.0" d="m385.5525 344.61285l114.14172 0" fill-rule="evenodd"/><path stroke="#000000" stroke-width="4.0" stroke-linejoin="round" stroke-linecap="butt" d="m385.5525 344.61285l114.14172 0" fill-rule="evenodd"/><path fill="#000000" d="m506.81628 310.95276l-11.496063 6.6456604l11.496063 6.6456604z" fill-rule="evenodd"/><path fill="#000000" fill-opacity="0.0" d="m387.56955 329.1076l0 16.53543" fill-rule="evenodd"/><path stroke="#000000" stroke-width="4.0" stroke-linejoin="round" stroke-linecap="butt" d="m387.56955 329.1076l0 16.53543" fill-rule="evenodd"/><path fill="#000000" d="m393.3176 310.95276l-11.496063 6.6456604l11.496063 6.6456604z" fill-rule="evenodd"/><path fill="#000000" fill-opacity="0.0" d="m287.24146 317.45645l-36.37648 0l0 0.12597656l-36.37941 0" fill-rule="evenodd"/><path stroke="#000000" stroke-width="1.0" stroke-linejoin="round" stroke-linecap="butt" d="m287.24146 317.45645l-36.37648 0l0 0.12597656l-36.37941 0" fill-rule="evenodd"/><path fill="#000000" fill-opacity="0.0" d="m381.82153 317.59842l-36.376495 0l0 -0.1574707l-36.379425 0" fill-rule="evenodd"/><path stroke="#000000" stroke-width="1.0" stroke-linejoin="round" stroke-linecap="butt" d="m381.82153 317.59842l-36.376495 0l0 -0.1574707l-36.379425 0" fill-rule="evenodd"/><path fill="#000000" fill-opacity="0.0" d="m381.82153 260.31366l69.76376 0l0 42.015747l-69.76376 0z" fill-rule="evenodd"/><path fill="#000000" d="m396.04028 277.37427q1.765625 0 2.859375 0.84375q1.109375 0.828125 1.296875 2.46875l-1.625 0q-0.203125 -0.9375 -0.828125 -1.421875q-0.625 -0.5 -1.5625 -0.5q-1.484375 0 -2.25 0.984375q-0.765625 0.984375 -0.765625 2.78125q0 1.609375 0.75 2.578125q0.765625 0.953125 2.078125 0.953125q1.15625 0 1.8125 -0.625q0.671875 -0.625 0.828125 -1.734375l1.625 0q-0.265625 1.8125 -1.359375 2.796875q-1.09375 0.96875 -2.890625 0.96875q-2.109375 0 -3.3125 -1.328125q-1.203125 -1.328125 -1.203125 -3.609375q0 -2.359375 1.21875 -3.75q1.21875 -1.40625 3.328125 -1.40625zm9.942322 0q1.96875 0 2.78125 0.703125q0.828125 0.6875 0.828125 1.875q0 5.015625 0 5.5625q0 0.546875 0.5 0.546875q0.109375 0 0.234375 -0.03125q0.140625 -0.03125 0.25 -0.0625l0 1.234375q-0.21875 0.125 -0.5 0.1875q-0.28125 0.078125 -0.625 0.078125q-0.65625 0 -1.0 -0.375q-0.34375 -0.375 -0.34375 -1.125q-0.640625 0.75 -1.5 1.125q-0.84375 0.375 -1.90625 0.375q-1.484375 0 -2.34375 -0.703125q-0.84375 -0.71875 -0.84375 -2.015625q0 -1.296875 0.828125 -2.046875q0.828125 -0.765625 3.90625 -1.15625q1.03125 -0.140625 1.390625 -0.390625q0.375 -0.265625 0.375 -0.796875q0 -0.796875 -0.515625 -1.1875q-0.5 -0.40625 -1.625 -0.40625q-1.171875 0 -1.765625 0.453125q-0.59375 0.4375 -0.640625 1.375l-1.578125 0q0.078125 -1.609375 1.125 -2.40625q1.0625 -0.8125 2.96875 -0.8125zm-2.796875 7.265625q0 0.671875 0.484375 1.046875q0.5 0.375 1.390625 0.375q1.34375 0 2.140625 -0.65625q0.796875 -0.671875 0.796875 -1.5l0 -1.65625q-0.390625 0.28125 -1.03125 0.390625q-0.640625 0.09375 -1.703125 0.234375q-1.046875 0.15625 -1.5625 0.578125q-0.515625 0.421875 -0.515625 1.1875zm11.067322 -9.9375l0 2.890625l1.921875 0l0 1.390625l-1.921875 0l0 6.046875q0 0.71875 0.484375 0.765625q0.484375 0.03125 1.0 0.03125l0.4375 0l0 1.40625l-1.296875 0q-1.3125 0 -1.765625 -0.453125q-0.4375 -0.46875 -0.4375 -1.5625l0 -6.234375l-1.65625 0l0 -1.390625l1.65625 0l0 -2.890625l1.578125 0z" fill-rule="nonzero"/><path fill="#000000" d="m103.86089 383.04465l8.377953 0l0 38.551178l-8.377953 0z" fill-rule="evenodd"/><path fill="#000000" d="m120.86089 383.04465l8.377953 0l0 38.551178l-8.377953 0z" fill-rule="evenodd"/><path fill="#000000" d="m137.86089 383.04465l8.37796 0l0 38.551178l-8.37796 0z" fill-rule="evenodd"/><path fill="#000000" d="m154.86089 383.04465l8.37796 0l0 38.551178l-8.37796 0z" fill-rule="evenodd"/><path fill="#000000" d="m171.86089 383.04465l8.37796 0l0 38.551178l-8.37796 0z" fill-rule="evenodd"/><path fill="#000000" d="m188.86089 383.01312l8.37796 0l0 38.551178l-8.37796 0z" fill-rule="evenodd"/><path fill="#000000" fill-opacity="0.0" d="m205.24147 413.08923l0 16.53543" fill-rule="evenodd"/><path stroke="#000000" stroke-width="4.0" stroke-linejoin="round" stroke-linecap="butt" d="m205.24147 413.08923l0 16.53543" fill-rule="evenodd"/><path fill="#000000" fill-opacity="0.0" d="m93.22441 428.59448l114.14172 0" fill-rule="evenodd"/><path stroke="#000000" stroke-width="4.0" stroke-linejoin="round" stroke-linecap="butt" d="m93.22441 428.59448l114.14172 0" fill-rule="evenodd"/><path fill="#000000" d="m202.99213 394.9344l11.496063 6.6456604l-11.496063 6.6456604z" fill-rule="evenodd"/><path fill="#000000" fill-opacity="0.0" d="m95.24147 413.08923l0 16.53543" fill-rule="evenodd"/><path stroke="#000000" stroke-width="4.0" stroke-linejoin="round" stroke-linecap="butt" d="m95.24147 413.08923l0 16.53543" fill-rule="evenodd"/><path fill="#000000" d="m89.49344 394.9344l11.496063 6.6456604l-11.496063 6.6456604z" fill-rule="evenodd"/><path fill="#000000" fill-opacity="0.0" d="m89.49344 344.9908l69.76378 0l0 42.015747l-69.76378 0z" fill-rule="evenodd"/><path fill="#000000" d="m103.63406 362.05142q1.96875 0 2.78125 0.703125q0.828125 0.6875 0.828125 1.875q0 5.015625 0 5.5625q0 0.546875 0.5 0.546875q0.109375 0 0.234375 -0.03125q0.140625 -0.03125 0.25 -0.0625l0 1.234375q-0.21875 0.125 -0.5 0.1875q-0.28125 0.078125 -0.625 0.078125q-0.65625 0 -1.0 -0.375q-0.34375 -0.375 -0.34375 -1.125q-0.640625 0.75 -1.5 1.125q-0.84375 0.375 -1.90625 0.375q-1.484375 0 -2.34375 -0.703125q-0.84375 -0.71875 -0.84375 -2.015625q0 -1.296875 0.828125 -2.046875q0.828125 -0.765625 3.90625 -1.15625q1.03125 -0.140625 1.390625 -0.390625q0.375 -0.265625 0.375 -0.796875q0 -0.796875 -0.515625 -1.1875q-0.5 -0.40625 -1.625 -0.40625q-1.171875 0 -1.765625 0.453125q-0.59375 0.4375 -0.640625 1.375l-1.578125 0q0.078125 -1.609375 1.125 -2.40625q1.0625 -0.8125 2.96875 -0.8125zm-2.796875 7.265625q0 0.671875 0.484375 1.046875q0.5 0.375 1.390625 0.375q1.34375 0 2.140625 -0.65625q0.796875 -0.671875 0.796875 -1.5l0 -1.65625q-0.390625 0.28125 -1.03125 0.390625q-0.640625 0.09375 -1.703125 0.234375q-1.046875 0.15625 -1.5625 0.578125q-0.515625 0.421875 -0.515625 1.1875zm12.895447 -7.265625q1.765625 0 2.859375 0.84375q1.109375 0.828125 1.296875 2.46875l-1.625 0q-0.203125 -0.9375 -0.828125 -1.421875q-0.625 -0.5 -1.5625 -0.5q-1.484375 0 -2.25 0.984375q-0.765625 0.984375 -0.765625 2.78125q0 1.609375 0.75 2.578125q0.765625 0.953125 2.078125 0.953125q1.15625 0 1.8125 -0.625q0.671875 -0.625 0.828125 -1.734375l1.625 0q-0.265625 1.8125 -1.359375 2.796875q-1.09375 0.96875 -2.890625 0.96875q-2.109375 0 -3.3125 -1.328125q-1.203125 -1.328125 -1.203125 -3.609375q0 -2.359375 1.21875 -3.75q1.21875 -1.40625 3.328125 -1.40625zm7.676697 -3.453125l0 7.890625l4.40625 -4.21875l2.125 0l-3.828125 3.5l4.109375 6.140625l-2.015625 0l-3.3125 -5.03125l-1.484375 1.375l0 3.65625l-1.59375 0l0 -13.3125l1.59375 0z" fill-rule="nonzero"/><path fill="#000000" d="m13.619423 395.17847l11.496063 6.645691l-11.496063 6.6456604z" fill-rule="evenodd"/><path fill="#000000" fill-opacity="0.0" d="m89.49344 401.58005l-32.188976 0l0 0.25198364l-32.188976 0" fill-rule="evenodd"/><path stroke="#000000" stroke-width="1.0" stroke-linejoin="round" stroke-linecap="butt" d="m89.49344 401.58005l-32.188976 0l0 0.25198364l-32.188976 0" fill-rule="evenodd"/><path fill="#000000" d="m579.5696 317.45645l0 0c0 -6.0360107 4.8860474 -10.929138 10.91333 -10.929138l0 0c2.8944092 0 5.670288 1.1514587 7.71698 3.2010803c2.0466309 2.049591 3.1964111 4.829468 3.1964111 7.728058l0 0c0 6.03598 -4.8860474 10.929138 -10.913391 10.929138l0 0c-6.0272827 0 -10.91333 -4.893158 -10.91333 -10.929138z" fill-rule="evenodd"/><path fill="#000000" d="m685.6457 310.65353l-11.496094 6.645691l11.496094 6.6456604z" fill-rule="evenodd"/><path fill="#000000" fill-opacity="0.0" d="m674.1496 317.29922l-36.376465 0l0 0.1574707l-36.379456 0" fill-rule="evenodd"/><path stroke="#000000" stroke-width="1.0" stroke-linejoin="round" stroke-linecap="butt" d="m674.1496 317.29922l-36.376465 0l0 0.1574707l-36.379456 0" fill-rule="evenodd"/><path fill="#000000" fill-opacity="0.0" d="m579.5696 317.45645l-36.376526 0l0 0.1574707l-36.379395 0" fill-rule="evenodd"/><path stroke="#000000" stroke-width="1.0" stroke-linejoin="round" stroke-linecap="butt" d="m579.5696 317.45645l-36.376526 0l0 0.1574707l-36.379395 0" fill-rule="evenodd"/><path fill="#000000" d="m396.18765 607.04333l8.37796 0l0 38.55121l-8.37796 0z" fill-rule="evenodd"/><path fill="#000000" d="m413.18765 607.04333l8.37796 0l0 38.55121l-8.37796 0z" fill-rule="evenodd"/><path fill="#000000" d="m430.18765 607.04333l8.37796 0l0 38.55121l-8.37796 0z" fill-rule="evenodd"/><path fill="#000000" d="m447.18765 607.04333l8.37796 0l0 38.55121l-8.37796 0z" fill-rule="evenodd"/><path fill="#000000" d="m464.18765 607.04333l8.37796 0l0 38.55121l-8.37796 0z" fill-rule="evenodd"/><path fill="#000000" d="m481.18765 607.01184l8.37796 0l0 38.551147l-8.37796 0z" fill-rule="evenodd"/><path fill="#000000" fill-opacity="0.0" d="m497.56824 637.08795l0 16.5354" fill-rule="evenodd"/><path stroke="#000000" stroke-width="4.0" stroke-linejoin="round" stroke-linecap="butt" d="m497.56824 637.08795l0 16.5354" fill-rule="evenodd"/><path fill="#000000" fill-opacity="0.0" d="m385.55118 652.5932l114.14172 0" fill-rule="evenodd"/><path stroke="#000000" stroke-width="4.0" stroke-linejoin="round" stroke-linecap="butt" d="m385.55118 652.5932l114.14172 0" fill-rule="evenodd"/><path fill="#000000" d="m495.3189 618.93304l11.496063 6.645691l-11.496063 6.645691z" fill-rule="evenodd"/><path fill="#000000" fill-opacity="0.0" d="m387.56824 637.08795l0 16.5354" fill-rule="evenodd"/><path stroke="#000000" stroke-width="4.0" stroke-linejoin="round" stroke-linecap="butt" d="m387.56824 637.08795l0 16.5354" fill-rule="evenodd"/><path fill="#000000" d="m381.82022 618.93304l11.496063 6.645691l-11.496063 6.645691z" fill-rule="evenodd"/><path fill="#000000" fill-opacity="0.0" d="m381.82153 484.31366l69.76376 0l0 42.015747l-69.76376 0z" fill-rule="evenodd"/><path fill="#000000" d="m396.04028 501.37427q1.765625 0 2.859375 0.84375q1.109375 0.828125 1.296875 2.46875l-1.625 0q-0.203125 -0.9375 -0.828125 -1.421875q-0.625 -0.5 -1.5625 -0.5q-1.484375 0 -2.25 0.984375q-0.765625 0.984375 -0.765625 2.78125q0 1.609375 0.75 2.578125q0.765625 0.953125 2.078125 0.953125q1.15625 0 1.8125 -0.625q0.671875 -0.625 0.828125 -1.734375l1.625 0q-0.265625 1.8125 -1.359375 2.796875q-1.09375 0.96875 -2.890625 0.96875q-2.109375 0 -3.3125 -1.328125q-1.203125 -1.328125 -1.203125 -3.609375q0 -2.359375 1.21875 -3.75q1.21875 -1.40625 3.328125 -1.40625zm9.942322 0q1.96875 0 2.78125 0.703125q0.828125 0.6875 0.828125 1.875q0 5.015625 0 5.5625q0 0.546875 0.5 0.546875q0.109375 0 0.234375 -0.03125q0.140625 -0.03125 0.25 -0.0625l0 1.234375q-0.21875 0.125 -0.5 0.1875q-0.28125 0.078125 -0.625 0.078125q-0.65625 0 -1.0 -0.375q-0.34375 -0.375 -0.34375 -1.125q-0.640625 0.75 -1.5 1.125q-0.84375 0.375 -1.90625 0.375q-1.484375 0 -2.34375 -0.703125q-0.84375 -0.71875 -0.84375 -2.015625q0 -1.296875 0.828125 -2.046875q0.828125 -0.765625 3.90625 -1.15625q1.03125 -0.140625 1.390625 -0.390625q0.375 -0.265625 0.375 -0.796875q0 -0.796875 -0.515625 -1.1875q-0.5 -0.40625 -1.625 -0.40625q-1.171875 0 -1.765625 0.453125q-0.59375 0.4375 -0.640625 1.375l-1.578125 0q0.078125 -1.609375 1.125 -2.40625q1.0625 -0.8125 2.96875 -0.8125zm-2.796875 7.265625q0 0.671875 0.484375 1.046875q0.5 0.375 1.390625 0.375q1.34375 0 2.140625 -0.65625q0.796875 -0.671875 0.796875 -1.5l0 -1.65625q-0.390625 0.28125 -1.03125 0.390625q-0.640625 0.09375 -1.703125 0.234375q-1.046875 0.15625 -1.5625 0.578125q-0.515625 0.421875 -0.515625 1.1875zm11.067322 -9.9375l0 2.890625l1.921875 0l0 1.390625l-1.921875 0l0 6.046875q0 0.71875 0.484375 0.765625q0.484375 0.03125 1.0 0.03125l0.4375 0l0 1.40625l-1.296875 0q-1.3125 0 -1.765625 -0.453125q-0.4375 -0.46875 -0.4375 -1.5625l0 -6.234375l-1.65625 0l0 -1.390625l1.65625 0l0 -2.890625l1.578125 0z" fill-rule="nonzero"/><path fill="#000000" fill-opacity="0.0" d="m89.49344 484.31366l69.76378 0l0 42.015747l-69.76378 0z" fill-rule="evenodd"/><path fill="#000000" d="m108.30594 497.92114l0 13.3125l-1.59375 0l0 -1.296875l-0.03125 0q-0.375 0.734375 -1.1875 1.140625q-0.8125 0.390625 -1.890625 0.390625q-2.015625 0 -3.234375 -1.40625q-1.203125 -1.40625 -1.203125 -3.671875q0 -2.234375 1.171875 -3.625q1.171875 -1.390625 3.21875 -1.390625q0.953125 0 1.796875 0.390625q0.859375 0.375 1.328125 1.109375l0.03125 0l0 -4.953125l1.59375 0zm-7.46875 8.5625q0 1.5625 0.8125 2.578125q0.8125 1.0 2.1875 1.0q1.390625 0 2.15625 -1.0q0.78125 -1.015625 0.78125 -2.640625q0 -1.640625 -0.796875 -2.640625q-0.78125 -1.015625 -2.265625 -1.015625q-1.359375 0 -2.125 1.0q-0.75 0.984375 -0.75 2.71875zm13.918304 -5.109375q2.078125 0 3.21875 1.5q1.15625 1.484375 1.15625 3.828125l0 0.1875l-7.234375 0l0 0.109375q0 1.390625 0.796875 2.234375q0.8125 0.828125 2.21875 0.828125q1.046875 0 1.671875 -0.484375q0.625 -0.5 0.828125 -1.40625l1.5625 0q-0.328125 1.609375 -1.40625 2.453125q-1.078125 0.84375 -2.71875 0.84375q-1.515625 0 -2.578125 -0.6875q-1.046875 -0.6875 -1.546875 -1.90625q-0.5 -1.234375 -0.5 -2.515625q0 -2.140625 1.28125 -3.5625q1.296875 -1.421875 3.25 -1.421875zm-2.859375 4.109375l5.546875 0q-0.078125 -1.171875 -0.859375 -1.9375q-0.765625 -0.78125 -1.9375 -0.78125q-1.09375 0 -1.875 0.734375q-0.765625 0.734375 -0.875 1.984375zm12.739197 -4.109375q0.953125 0 1.796875 0.390625q0.859375 0.375 1.328125 1.109375l0.03125 0l0 -1.28125l1.59375 0l0 13.34375l-1.59375 0l0 -5.0l-0.03125 0q-0.375 0.734375 -1.1875 1.140625q-0.8125 0.390625 -1.890625 0.390625q-2.015625 0 -3.234375 -1.40625q-1.203125 -1.40625 -1.203125 -3.671875q0 -2.234375 1.171875 -3.625q1.1875 -1.390625 3.21875 -1.390625zm-2.71875 5.109375q0 1.5625 0.8125 2.578125q0.8125 1.0 2.1875 1.0q1.390625 0 2.15625 -1.0q0.78125 -1.015625 0.78125 -2.640625q0 -1.640625 -0.796875 -2.640625q-0.78125 -1.015625 -2.265625 -1.015625q-1.359375 0 -2.125 1.0q-0.75 0.984375 -0.75 2.71875z" fill-rule="nonzero"/><path fill="#000000" d="m103.86089 523.0617l8.377953 0l0 38.55121l-8.377953 0z" fill-rule="evenodd"/><path fill="#000000" d="m120.86089 523.0617l8.377953 0l0 38.55121l-8.377953 0z" fill-rule="evenodd"/><path fill="#000000" d="m137.86089 523.0617l8.37796 0l0 38.55121l-8.37796 0z" fill-rule="evenodd"/><path fill="#000000" d="m154.86089 523.0617l8.37796 0l0 38.55121l-8.37796 0z" fill-rule="evenodd"/><path fill="#000000" d="m171.86089 523.0617l8.37796 0l0 38.55121l-8.37796 0z" fill-rule="evenodd"/><path fill="#000000" d="m188.86089 523.0302l8.37796 0l0 38.551147l-8.37796 0z" fill-rule="evenodd"/><path fill="#000000" fill-opacity="0.0" d="m205.24147 553.1063l0 16.5354" fill-rule="evenodd"/><path stroke="#000000" stroke-width="4.0" stroke-linejoin="round" stroke-linecap="butt" d="m205.24147 553.1063l0 16.5354" fill-rule="evenodd"/><path fill="#000000" fill-opacity="0.0" d="m93.22441 568.6116l114.14172 0" fill-rule="evenodd"/><path stroke="#000000" stroke-width="4.0" stroke-linejoin="round" stroke-linecap="butt" d="m93.22441 568.6116l114.14172 0" fill-rule="evenodd"/><path fill="#000000" d="m214.48819 534.9514l-11.496063 6.645691l11.496063 6.645691z" fill-rule="evenodd"/><path fill="#000000" fill-opacity="0.0" d="m95.24147 553.1063l0 16.5354" fill-rule="evenodd"/><path stroke="#000000" stroke-width="4.0" stroke-linejoin="round" stroke-linecap="butt" d="m95.24147 553.1063l0 16.5354" fill-rule="evenodd"/><path fill="#000000" d="m100.9895 534.9514l-11.496063 6.645691l11.496063 6.645691z" fill-rule="evenodd"/><path fill="#000000" fill-opacity="0.0" d="m89.49344 541.5971l-32.188976 0l0 -0.12597656l-32.188976 0" fill-rule="evenodd"/><path stroke="#000000" stroke-width="1.0" stroke-linejoin="round" stroke-linecap="butt" d="m89.49344 541.5971l-32.188976 0l0 -0.12597656l-32.188976 0" fill-rule="evenodd"/><path fill="#000000" d="m287.24146 541.4564l0 0c0 -6.0359497 4.8861084 -10.929138 10.913391 -10.929138l0 0c2.8944092 0 5.670288 1.1514893 7.7169495 3.2011108c2.0466309 2.0496216 3.1964417 4.829468 3.1964417 7.7280273l0 0c0 6.0360107 -4.886078 10.929138 -10.913391 10.929138l0 0c-6.0272827 0 -10.913391 -4.8931274 -10.913391 -10.929138z" fill-rule="evenodd"/><path fill="#000000" d="m396.18896 523.06305l8.37796 0l0 38.551147l-8.37796 0z" fill-rule="evenodd"/><path fill="#000000" d="m413.18896 523.06305l8.37796 0l0 38.551147l-8.37796 0z" fill-rule="evenodd"/><path fill="#000000" d="m430.18896 523.063l8.37796 0l0 38.55121l-8.37796 0z" fill-rule="evenodd"/><path fill="#000000" d="m447.18896 523.06305l8.37796 0l0 38.551147l-8.37796 0z" fill-rule="evenodd"/><path fill="#000000" d="m464.18896 523.063l8.37796 0l0 38.55121l-8.37796 0z" fill-rule="evenodd"/><path fill="#000000" d="m481.18896 523.0315l8.37796 0l0 38.55121l-8.37796 0z" fill-rule="evenodd"/><path fill="#000000" fill-opacity="0.0" d="m497.56955 553.1076l0 16.535461" fill-rule="evenodd"/><path stroke="#000000" stroke-width="4.0" stroke-linejoin="round" stroke-linecap="butt" d="m497.56955 553.1076l0 16.535461" fill-rule="evenodd"/><path fill="#000000" fill-opacity="0.0" d="m385.5525 568.61285l114.14172 0" fill-rule="evenodd"/><path stroke="#000000" stroke-width="4.0" stroke-linejoin="round" stroke-linecap="butt" d="m385.5525 568.61285l114.14172 0" fill-rule="evenodd"/><path fill="#000000" d="m506.81628 534.95276l-11.496063 6.645691l11.496063 6.64563z" fill-rule="evenodd"/><path fill="#000000" fill-opacity="0.0" d="m387.56955 553.1076l0 16.535461" fill-rule="evenodd"/><path stroke="#000000" stroke-width="4.0" stroke-linejoin="round" stroke-linecap="butt" d="m387.56955 553.1076l0 16.535461" fill-rule="evenodd"/><path fill="#000000" d="m393.3176 534.95276l-11.496063 6.645691l11.496063 6.64563z" fill-rule="evenodd"/><path fill="#000000" d="m103.86089 607.0447l8.377953 0l0 38.551147l-8.377953 0z" fill-rule="evenodd"/><path fill="#000000" d="m120.86089 607.0447l8.377953 0l0 38.551147l-8.377953 0z" fill-rule="evenodd"/><path fill="#000000" d="m137.86089 607.0446l8.37796 0l0 38.55121l-8.37796 0z" fill-rule="evenodd"/><path fill="#000000" d="m154.86089 607.0447l8.37796 0l0 38.551147l-8.37796 0z" fill-rule="evenodd"/><path fill="#000000" d="m171.86089 607.0446l8.37796 0l0 38.55121l-8.37796 0z" fill-rule="evenodd"/><path fill="#000000" d="m188.86089 607.0131l8.37796 0l0 38.55121l-8.37796 0z" fill-rule="evenodd"/><path fill="#000000" fill-opacity="0.0" d="m205.24147 637.08923l0 16.535461" fill-rule="evenodd"/><path stroke="#000000" stroke-width="4.0" stroke-linejoin="round" stroke-linecap="butt" d="m205.24147 637.08923l0 16.535461" fill-rule="evenodd"/><path fill="#000000" fill-opacity="0.0" d="m93.22441 652.5945l114.14172 0" fill-rule="evenodd"/><path stroke="#000000" stroke-width="4.0" stroke-linejoin="round" stroke-linecap="butt" d="m93.22441 652.5945l114.14172 0" fill-rule="evenodd"/><path fill="#000000" d="m202.99213 618.9344l11.496063 6.645691l-11.496063 6.64563z" fill-rule="evenodd"/><path fill="#000000" fill-opacity="0.0" d="m95.24147 637.08923l0 16.535461" fill-rule="evenodd"/><path stroke="#000000" stroke-width="4.0" stroke-linejoin="round" stroke-linecap="butt" d="m95.24147 637.08923l0 16.535461" fill-rule="evenodd"/><path fill="#000000" d="m89.49344 618.9344l11.496063 6.645691l-11.496063 6.64563z" fill-rule="evenodd"/><path fill="#000000" fill-opacity="0.0" d="m89.49344 568.9908l69.76378 0l0 42.01581l-69.76378 0z" fill-rule="evenodd"/><path fill="#000000" d="m103.63406 586.05145q1.96875 0 2.78125 0.703125q0.828125 0.6875 0.828125 1.875q0 5.015625 0 5.5625q0 0.546875 0.5 0.546875q0.109375 0 0.234375 -0.03125q0.140625 -0.03125 0.25 -0.0625l0 1.234375q-0.21875 0.125 -0.5 0.1875q-0.28125 0.078125 -0.625 0.078125q-0.65625 0 -1.0 -0.375q-0.34375 -0.375 -0.34375 -1.125q-0.640625 0.75 -1.5 1.125q-0.84375 0.375 -1.90625 0.375q-1.484375 0 -2.34375 -0.703125q-0.84375 -0.71875 -0.84375 -2.015625q0 -1.296875 0.828125 -2.046875q0.828125 -0.765625 3.90625 -1.15625q1.03125 -0.140625 1.390625 -0.390625q0.375 -0.265625 0.375 -0.796875q0 -0.796875 -0.515625 -1.1875q-0.5 -0.40625 -1.625 -0.40625q-1.171875 0 -1.765625 0.453125q-0.59375 0.4375 -0.640625 1.375l-1.578125 0q0.078125 -1.609375 1.125 -2.40625q1.0625 -0.8125 2.96875 -0.8125zm-2.796875 7.265625q0 0.671875 0.484375 1.046875q0.5 0.375 1.390625 0.375q1.34375 0 2.140625 -0.65625q0.796875 -0.671875 0.796875 -1.5l0 -1.65625q-0.390625 0.28125 -1.03125 0.390625q-0.640625 0.09375 -1.703125 0.234375q-1.046875 0.15625 -1.5625 0.578125q-0.515625 0.421875 -0.515625 1.1875zm12.895447 -7.265625q1.765625 0 2.859375 0.84375q1.109375 0.828125 1.296875 2.46875l-1.625 0q-0.203125 -0.9375 -0.828125 -1.421875q-0.625 -0.5 -1.5625 -0.5q-1.484375 0 -2.25 0.984375q-0.765625 0.984375 -0.765625 2.78125q0 1.609375 0.75 2.578125q0.765625 0.953125 2.078125 0.953125q1.15625 0 1.8125 -0.625q0.671875 -0.625 0.828125 -1.734375l1.625 0q-0.265625 1.8125 -1.359375 2.796875q-1.09375 0.96875 -2.890625 0.96875q-2.109375 0 -3.3125 -1.328125q-1.203125 -1.328125 -1.203125 -3.609375q0 -2.359375 1.21875 -3.75q1.21875 -1.40625 3.328125 -1.40625zm7.676697 -3.453125l0 7.890625l4.40625 -4.21875l2.125 0l-3.828125 3.5l4.109375 6.140625l-2.015625 0l-3.3125 -5.03125l-1.484375 1.375l0 3.65625l-1.59375 0l0 -13.3125l1.59375 0z" fill-rule="nonzero"/><path fill="#000000" d="m13.619423 619.17847l11.496063 6.645691l-11.496063 6.64563z" fill-rule="evenodd"/><path fill="#000000" fill-opacity="0.0" d="m89.49344 625.5801l-32.188976 0l0 0.25195312l-32.188976 0" fill-rule="evenodd"/><path stroke="#000000" stroke-width="1.0" stroke-linejoin="round" stroke-linecap="butt" d="m89.49344 625.5801l-32.188976 0l0 0.25195312l-32.188976 0" fill-rule="evenodd"/><path fill="#000000" fill-opacity="0.0" d="m287.24146 541.4564l-36.37648 0l0 0.1260376l-36.37941 0" fill-rule="evenodd"/><path stroke="#000000" stroke-width="1.0" stroke-linejoin="round" stroke-linecap="butt" d="m287.24146 541.4564l-36.37648 0l0 0.1260376l-36.37941 0" fill-rule="evenodd"/><path fill="#000000" fill-opacity="0.0" d="m381.82153 541.59845l-36.376495 0l0 -0.15753174l-36.379425 0" fill-rule="evenodd"/><path stroke="#000000" stroke-width="1.0" stroke-linejoin="round" stroke-linecap="butt" d="m381.82153 541.59845l-36.376495 0l0 -0.15753174l-36.379425 0" fill-rule="evenodd"/><path fill="#000000" fill-opacity="0.0" d="m590.4829 328.3856l0 213.22836l-83.6535 0" fill-rule="evenodd"/><path stroke="#000000" stroke-width="1.0" stroke-linejoin="round" stroke-linecap="butt" d="m590.4829 328.3856l0 213.22836l-83.6535 0" fill-rule="evenodd"/><path fill="#000000" fill-opacity="0.0" d="m15.0 240.0l722.01575 0" fill-rule="evenodd"/><path stroke="#000000" stroke-width="1.0" stroke-linejoin="round" stroke-linecap="butt" stroke-dasharray="1.0,3.0" d="m15.0 240.0l722.01575 0" fill-rule="evenodd"/><path fill="#000000" fill-opacity="0.0" d="m590.4829 0l109.51184 0l0 42.015747l-109.51184 0z" fill-rule="evenodd"/><path fill="#000000" d="m605.43604 17.060623q2.0625 0 3.25 1.421875q1.1875 1.421875 1.1875 3.640625q0 2.25 -1.1875 3.640625q-1.171875 1.390625 -3.203125 1.390625q-0.90625 0 -1.765625 -0.375q-0.859375 -0.375 -1.359375 -1.140625l-0.046875 0l0 4.984375l-1.578125 0l0 -13.34375l1.578125 0l0 1.3125l0.046875 0q0.375 -0.75 1.171875 -1.140625q0.8125 -0.390625 1.90625 -0.390625zm-3.171875 5.03125q0 1.671875 0.8125 2.671875q0.8125 0.984375 2.234375 0.984375q1.375 0 2.125 -0.984375q0.75 -0.984375 0.75 -2.75q0 -1.546875 -0.796875 -2.546875q-0.796875 -1.015625 -2.1875 -1.015625q-1.40625 0 -2.171875 1.015625q-0.765625 1.015625 -0.765625 2.625zm14.27771 -5.046875q0.046875 0 0.09375 0q0.046875 0 0.125 0.015625l0 1.671875q-1.796875 0 -2.65625 0.953125q-0.84375 0.9375 -0.84375 2.921875l0 4.3125l-1.578125 0l0 -9.640625l1.484375 0l0 2.03125l0.046875 0q0.546875 -1.15625 1.359375 -1.703125q0.828125 -0.5625 1.96875 -0.5625zm5.2348022 0.015625q2.1875 0 3.421875 1.40625q1.25 1.40625 1.25 3.640625q0 2.25 -1.28125 3.65625q-1.265625 1.390625 -3.390625 1.390625q-2.09375 0 -3.390625 -1.375q-1.296875 -1.375 -1.296875 -3.671875q0 -2.296875 1.265625 -3.671875q1.265625 -1.375 3.421875 -1.375zm-3.015625 5.046875q0 1.65625 0.84375 2.65625q0.859375 0.984375 2.171875 0.984375q1.296875 0 2.140625 -0.984375q0.859375 -1.0 0.859375 -2.65625q0 -1.640625 -0.84375 -2.640625q-0.84375 -1.015625 -2.171875 -1.015625q-1.28125 0 -2.140625 0.984375q-0.859375 0.984375 -0.859375 2.671875zm18.181519 -8.5l0 13.3125l-1.59375 0l0 -1.296875l-0.03125 0q-0.375 0.734375 -1.1875 1.140625q-0.8125 0.390625 -1.890625 0.390625q-2.015625 0 -3.234375 -1.40625q-1.203125 -1.40625 -1.203125 -3.671875q0 -2.234375 1.171875 -3.625q1.171875 -1.390625 3.21875 -1.390625q0.953125 0 1.796875 0.390625q0.859375 0.375 1.328125 1.109375l0.03125 0l0 -4.953125l1.59375 0zm-7.46875 8.5625q0 1.5625 0.8125 2.578125q0.8125 1.0 2.1875 1.0q1.390625 0 2.15625 -1.0q0.78125 -1.015625 0.78125 -2.640625q0 -1.640625 -0.796875 -2.640625q-0.78125 -1.015625 -2.265625 -1.015625q-1.359375 0 -2.125 1.0q-0.75 0.984375 -0.75 2.71875zm11.49646 -4.890625l0 6.578125q0 0.8125 0.515625 1.359375q0.53125 0.53125 1.453125 0.53125q1.359375 0 2.09375 -0.828125q0.75 -0.84375 0.75 -2.140625l0 -5.5l1.59375 0l0 9.640625l-1.5 0l0 -1.53125l-0.03125 0q-0.53125 0.921875 -1.328125 1.34375q-0.796875 0.421875 -1.8125 0.421875q-1.6875 0 -2.515625 -0.875q-0.8125 -0.875 -0.8125 -2.578125l0 -6.421875l1.59375 0zm12.813171 -0.21875q1.765625 0 2.859375 0.84375q1.109375 0.828125 1.296875 2.46875l-1.625 0q-0.203125 -0.9375 -0.828125 -1.421875q-0.625 -0.5 -1.5625 -0.5q-1.484375 0 -2.25 0.984375q-0.765625 0.984375 -0.765625 2.78125q0 1.609375 0.75 2.578125q0.765625 0.953125 2.078125 0.953125q1.15625 0 1.8125 -0.625q0.671875 -0.625 0.828125 -1.734375l1.625 0q-0.265625 1.8125 -1.359375 2.796875q-1.09375 0.96875 -2.890625 0.96875q-2.109375 0 -3.3125 -1.328125q-1.203125 -1.328125 -1.203125 -3.609375q0 -2.359375 1.21875 -3.75q1.21875 -1.40625 3.328125 -1.40625zm10.004822 0q2.078125 0 3.21875 1.5q1.15625 1.484375 1.15625 3.828125l0 0.1875l-7.234375 0l0 0.109375q0 1.390625 0.796875 2.234375q0.8125 0.828125 2.21875 0.828125q1.046875 0 1.671875 -0.484375q0.625 -0.5 0.828125 -1.40625l1.5625 0q-0.328125 1.609375 -1.40625 2.453125q-1.078125 0.84375 -2.71875 0.84375q-1.515625 0 -2.578125 -0.6875q-1.046875 -0.6875 -1.546875 -1.90625q-0.5 -1.234375 -0.5 -2.515625q0 -2.140625 1.28125 -3.5625q1.296875 -1.421875 3.25 -1.421875zm-2.859375 4.109375l5.546875 0q-0.078125 -1.171875 -0.859375 -1.9375q-0.765625 -0.78125 -1.9375 -0.78125q-1.09375 0 -1.875 0.734375q-0.765625 0.734375 -0.875 1.984375zm13.676697 -4.125q0.046875 0 0.09375 0q0.046875 0 0.125 0.015625l0 1.671875q-1.796875 0 -2.65625 0.953125q-0.84375 0.9375 -0.84375 2.921875l0 4.3125l-1.578125 0l0 -9.640625l1.484375 0l0 2.03125l0.046875 0q0.546875 -1.15625 1.359375 -1.703125q0.828125 -0.5625 1.96875 -0.5625z" fill-rule="nonzero"/><path fill="#000000" fill-opacity="0.0" d="m590.4829 240.0l109.51184 0l0 42.015747l-109.51184 0z" fill-rule="evenodd"/><path fill="#000000" d="m604.70166 257.0606q1.765625 0 2.859375 0.84375q1.109375 0.828125 1.296875 2.46875l-1.625 0q-0.203125 -0.9375 -0.828125 -1.421875q-0.625 -0.5 -1.5625 -0.5q-1.484375 0 -2.25 0.984375q-0.765625 0.984375 -0.765625 2.78125q0 1.609375 0.75 2.578125q0.765625 0.953125 2.078125 0.953125q1.15625 0 1.8125 -0.625q0.671875 -0.625 0.828125 -1.734375l1.625 0q-0.265625 1.8125 -1.359375 2.796875q-1.09375 0.96875 -2.890625 0.96875q-2.109375 0 -3.3125 -1.328125q-1.203125 -1.328125 -1.203125 -3.609375q0 -2.359375 1.21875 -3.75q1.21875 -1.40625 3.328125 -1.40625zm10.161072 0q2.1875 0 3.421875 1.40625q1.25 1.40625 1.25 3.640625q0 2.25 -1.28125 3.65625q-1.265625 1.390625 -3.390625 1.390625q-2.09375 0 -3.390625 -1.375q-1.296875 -1.375 -1.296875 -3.671875q0 -2.296875 1.265625 -3.671875q1.265625 -1.375 3.421875 -1.375zm-3.015625 5.046875q0 1.65625 0.84375 2.65625q0.859375 0.984375 2.171875 0.984375q1.296875 0 2.140625 -0.984375q0.859375 -1.0 0.859375 -2.65625q0 -1.640625 -0.84375 -2.640625q-0.84375 -1.015625 -2.171875 -1.015625q-1.28125 0 -2.140625 0.984375q-0.859375 0.984375 -0.859375 2.671875zm14.228394 -5.046875q1.75 0 2.53125 0.890625q0.796875 0.890625 0.796875 2.546875l0 6.421875l-1.59375 0l0 -6.59375q0 -0.8125 -0.53125 -1.34375q-0.515625 -0.53125 -1.4375 -0.53125q-1.34375 0 -2.09375 0.828125q-0.75 0.8125 -0.75 2.125l0 5.515625l-1.59375 0l0 -9.640625l1.5 0l0 1.53125l0.03125 0q0.53125 -0.90625 1.296875 -1.328125q0.78125 -0.421875 1.84375 -0.421875zm8.922607 0q1.9375 0 2.890625 0.75q0.953125 0.75 1.03125 2.265625l-1.578125 0l0 -0.03125q-0.0625 -0.765625 -0.671875 -1.171875q-0.609375 -0.421875 -1.5625 -0.421875q-0.953125 0 -1.515625 0.328125q-0.546875 0.3125 -0.546875 0.90625q0 0.515625 0.484375 0.859375q0.5 0.328125 1.484375 0.546875l1.484375 0.328125q1.40625 0.3125 2.125 0.953125q0.734375 0.640625 0.734375 1.734375q0 1.421875 -1.109375 2.234375q-1.09375 0.8125 -2.984375 0.8125q-1.859375 0 -2.953125 -0.828125q-1.078125 -0.84375 -1.140625 -2.453125l1.59375 0q0.03125 0.90625 0.703125 1.390625q0.6875 0.484375 1.875 0.484375q1.15625 0 1.75 -0.359375q0.59375 -0.375 0.59375 -1.078125q0 -0.65625 -0.59375 -1.03125q-0.59375 -0.375 -2.40625 -0.734375q-1.828125 -0.359375 -2.578125 -1.015625q-0.734375 -0.65625 -0.734375 -1.734375q0 -1.265625 1.03125 -2.0q1.03125 -0.734375 2.59375 -0.734375zm7.703125 0.21875l0 6.578125q0 0.8125 0.515625 1.359375q0.53125 0.53125 1.453125 0.53125q1.359375 0 2.09375 -0.828125q0.75 -0.84375 0.75 -2.140625l0 -5.5l1.59375 0l0 9.640625l-1.5 0l0 -1.53125l-0.03125 0q-0.53125 0.921875 -1.328125 1.34375q-0.796875 0.421875 -1.8125 0.421875q-1.6875 0 -2.515625 -0.875q-0.8125 -0.875 -0.8125 -2.578125l0 -6.421875l1.59375 0zm13.438232 -0.21875q1.046875 0 1.71875 0.421875q0.671875 0.421875 0.921875 1.21875q0.5 -0.78125 1.28125 -1.203125q0.796875 -0.4375 1.765625 -0.4375q1.625 0 2.40625 0.734375q0.78125 0.734375 0.78125 2.0l0 7.125l-1.578125 0l0 -6.390625q0 -1.046875 -0.453125 -1.5625q-0.4375 -0.515625 -1.421875 -0.515625q-1.1875 0 -1.859375 0.6875q-0.65625 0.6875 -0.65625 1.71875l0 6.0625l-1.59375 0l0 -6.390625q0 -1.046875 -0.4375 -1.5625q-0.4375 -0.515625 -1.359375 -0.515625q-0.765625 0 -1.34375 0.359375q-0.578125 0.359375 -0.90625 1.0q-0.328125 0.625 -0.328125 1.0625l0 6.046875l-1.59375 0l0 -9.640625l1.5 0l0 1.421875l0.03125 0q0.546875 -0.84375 1.3125 -1.234375q0.78125 -0.40625 1.8125 -0.40625zm15.273682 0q2.078125 0 3.21875 1.5q1.15625 1.484375 1.15625 3.828125l0 0.1875l-7.234375 0l0 0.109375q0 1.390625 0.796875 2.234375q0.8125 0.828125 2.21875 0.828125q1.046875 0 1.671875 -0.484375q0.625 -0.5 0.828125 -1.40625l1.5625 0q-0.328125 1.609375 -1.40625 2.453125q-1.078125 0.84375 -2.71875 0.84375q-1.515625 0 -2.578125 -0.6875q-1.046875 -0.6875 -1.546875 -1.90625q-0.5 -1.234375 -0.5 -2.515625q0 -2.140625 1.28125 -3.5625q1.296875 -1.421875 3.25 -1.421875zm-2.859375 4.109375l5.546875 0q-0.078125 -1.171875 -0.859375 -1.9375q-0.765625 -0.78125 -1.9375 -0.78125q-1.09375 0 -1.875 0.734375q-0.765625 0.734375 -0.875 1.984375zm13.676697 -4.125q0.046875 0 0.09375 0q0.046875 0 0.125 0.015625l0 1.671875q-1.796875 0 -2.65625 0.953125q-0.84375 0.9375 -0.84375 2.921875l0 4.3125l-1.578125 0l0 -9.640625l1.484375 0l0 2.03125l0.046875 0q0.546875 -1.15625 1.359375 -1.703125q0.828125 -0.5625 1.96875 -0.5625z" fill-rule="nonzero"/><path fill="#000000" d="m287.24146 401.70578l0 0c0 -6.03598 4.8861084 -10.929138 10.913391 -10.929138l0 0c2.8944092 0 5.670288 1.1514587 7.7169495 3.2010803c2.0466309 2.0496216 3.1964417 4.829468 3.1964417 7.728058l0 0c0 6.0360107 -4.886078 10.929138 -10.913391 10.929138l0 0c-6.0272827 0 -10.913391 -4.8931274 -10.913391 -10.929138z" fill-rule="evenodd"/><path fill="#000000" d="m287.24146 625.7058l0 0c0 -6.0360107 4.8861084 -10.929138 10.913391 -10.929138l0 0c2.8944092 0 5.670288 1.1514282 7.7169495 3.2010498c2.0466309 2.0496216 3.1964417 4.829468 3.1964417 7.7280884l0 0c0 6.0359497 -4.886078 10.929138 -10.913391 10.929138l0 0c-6.0272827 0 -10.913391 -4.8931885 -10.913391 -10.929138z" fill-rule="evenodd"/><path fill="#000000" fill-opacity="0.0" d="m287.24146 625.7058l-36.37648 0l0 -0.12597656l-36.37941 0" fill-rule="evenodd"/><path stroke="#000000" stroke-width="1.0" stroke-linejoin="round" stroke-linecap="butt" d="m287.24146 625.7058l-36.37648 0l0 -0.12597656l-36.37941 0" fill-rule="evenodd"/><path fill="#000000" fill-opacity="0.0" d="m287.24146 401.70578l-36.37648 0l0 -0.12597656l-36.37941 0" fill-rule="evenodd"/><path stroke="#000000" stroke-width="1.0" stroke-linejoin="round" stroke-linecap="butt" d="m287.24146 401.70578l-36.37648 0l0 -0.12597656l-36.37941 0" fill-rule="evenodd"/><path fill="#000000" fill-opacity="0.0" d="m381.82022 625.57874l-36.375793 0l0 0.12597656l-36.380127 0" fill-rule="evenodd"/><path stroke="#000000" stroke-width="1.0" stroke-linejoin="round" stroke-linecap="butt" d="m381.82022 625.57874l-36.375793 0l0 0.12597656l-36.380127 0" fill-rule="evenodd"/><path fill="#000000" fill-opacity="0.0" d="m381.82153 569.7559l125.00787 0l0 42.015747l-125.00787 0z" fill-rule="evenodd"/><path fill="#000000" d="m395.94653 586.8165q1.0 0 1.734375 0.4375q0.75 0.4375 1.140625 1.15625l0.03125 0l0 -1.375l1.484375 0l0 8.921875q0 2.265625 -1.09375 3.453125q-1.09375 1.1875 -3.375 1.1875q-1.65625 0 -2.796875 -0.734375q-1.125 -0.734375 -1.203125 -2.109375l1.578125 0q0.046875 0.75 0.796875 1.15625q0.75 0.421875 1.703125 0.421875q1.40625 0 2.15625 -0.9375q0.75 -0.921875 0.75 -2.75l0 -0.609375l-0.046875 0q-0.375 0.796875 -1.1875 1.28125q-0.796875 0.46875 -1.828125 0.46875q-1.953125 0 -3.125 -1.34375q-1.171875 -1.359375 -1.171875 -3.53125q0 -2.21875 1.171875 -3.65625q1.171875 -1.4375 3.28125 -1.4375zm-2.78125 4.890625q0 1.71875 0.71875 2.703125q0.734375 0.984375 2.015625 0.984375q1.3125 0 2.078125 -1.015625q0.78125 -1.015625 0.78125 -2.71875q0 -1.546875 -0.71875 -2.5q-0.71875 -0.953125 -2.03125 -0.953125q-1.328125 0 -2.09375 0.953125q-0.75 0.953125 -0.75 2.546875zm11.244019 -8.34375l0 13.3125l-1.59375 0l0 -13.3125l1.59375 0zm6.629181 3.453125q2.1875 0 3.421875 1.40625q1.25 1.40625 1.25 3.640625q0 2.25 -1.28125 3.65625q-1.265625 1.390625 -3.390625 1.390625q-2.09375 0 -3.390625 -1.375q-1.296875 -1.375 -1.296875 -3.671875q0 -2.296875 1.265625 -3.671875q1.265625 -1.375 3.421875 -1.375zm-3.015625 5.046875q0 1.65625 0.84375 2.65625q0.859375 0.984375 2.171875 0.984375q1.296875 0 2.140625 -0.984375q0.859375 -1.0 0.859375 -2.65625q0 -1.640625 -0.84375 -2.640625q-0.84375 -1.015625 -2.171875 -1.015625q-1.28125 0 -2.140625 0.984375q-0.859375 0.984375 -0.859375 2.671875zm11.197144 -8.5l0 4.984375l0.046875 0q0.375 -0.75 1.171875 -1.140625q0.796875 -0.390625 1.90625 -0.390625q2.0625 0 3.25 1.421875q1.1875 1.421875 1.1875 3.640625q0 2.25 -1.1875 3.640625q-1.171875 1.390625 -3.203125 1.390625q-0.90625 0 -1.765625 -0.375q-0.859375 -0.375 -1.359375 -1.140625l-0.046875 0l0 1.28125l-1.578125 0l0 -13.3125l1.578125 0zm-0.046875 8.484375q0 1.671875 0.8125 2.671875q0.8125 0.984375 2.234375 0.984375q1.375 0 2.125 -0.984375q0.75 -0.984375 0.75 -2.75q0 -1.546875 -0.796875 -2.546875q-0.796875 -1.015625 -2.1875 -1.015625q-1.40625 0 -2.171875 1.015625q-0.765625 1.015625 -0.765625 2.625zm13.418304 -5.03125q1.96875 0 2.78125 0.703125q0.828125 0.6875 0.828125 1.875q0 5.015625 0 5.5625q0 0.546875 0.5 0.546875q0.109375 0 0.234375 -0.03125q0.140625 -0.03125 0.25 -0.0625l0 1.234375q-0.21875 0.125 -0.5 0.1875q-0.28125 0.078125 -0.625 0.078125q-0.65625 0 -1.0 -0.375q-0.34375 -0.375 -0.34375 -1.125q-0.640625 0.75 -1.5 1.125q-0.84375 0.375 -1.90625 0.375q-1.484375 0 -2.34375 -0.703125q-0.84375 -0.71875 -0.84375 -2.015625q0 -1.296875 0.828125 -2.046875q0.828125 -0.765625 3.90625 -1.15625q1.03125 -0.140625 1.390625 -0.390625q0.375 -0.265625 0.375 -0.796875q0 -0.796875 -0.515625 -1.1875q-0.5 -0.40625 -1.625 -0.40625q-1.171875 0 -1.765625 0.453125q-0.59375 0.4375 -0.640625 1.375l-1.578125 0q0.078125 -1.609375 1.125 -2.40625q1.0625 -0.8125 2.96875 -0.8125zm-2.796875 7.265625q0 0.671875 0.484375 1.046875q0.5 0.375 1.390625 0.375q1.34375 0 2.140625 -0.65625q0.796875 -0.671875 0.796875 -1.5l0 -1.65625q-0.390625 0.28125 -1.03125 0.390625q-0.640625 0.09375 -1.703125 0.234375q-1.046875 0.15625 -1.5625 0.578125q-0.515625 0.421875 -0.515625 1.1875zm10.551697 -10.71875l0 13.3125l-1.59375 0l0 -13.3125l1.59375 0zm16.77707 3.453125q1.96875 0 2.78125 0.703125q0.828125 0.6875 0.828125 1.875q0 5.015625 0 5.5625q0 0.546875 0.5 0.546875q0.109375 0 0.234375 -0.03125q0.140625 -0.03125 0.25 -0.0625l0 1.234375q-0.21875 0.125 -0.5 0.1875q-0.28125 0.078125 -0.625 0.078125q-0.65625 0 -1.0 -0.375q-0.34375 -0.375 -0.34375 -1.125q-0.640625 0.75 -1.5 1.125q-0.84375 0.375 -1.90625 0.375q-1.484375 0 -2.34375 -0.703125q-0.84375 -0.71875 -0.84375 -2.015625q0 -1.296875 0.828125 -2.046875q0.828125 -0.765625 3.90625 -1.15625q1.03125 -0.140625 1.390625 -0.390625q0.375 -0.265625 0.375 -0.796875q0 -0.796875 -0.515625 -1.1875q-0.5 -0.40625 -1.625 -0.40625q-1.171875 0 -1.765625 0.453125q-0.59375 0.4375 -0.640625 1.375l-1.578125 0q0.078125 -1.609375 1.125 -2.40625q1.0625 -0.8125 2.96875 -0.8125zm-2.796875 7.265625q0 0.671875 0.484375 1.046875q0.5 0.375 1.390625 0.375q1.34375 0 2.140625 -0.65625q0.796875 -0.671875 0.796875 -1.5l0 -1.65625q-0.390625 0.28125 -1.03125 0.390625q-0.640625 0.09375 -1.703125 0.234375q-1.046875 0.15625 -1.5625 0.578125q-0.515625 0.421875 -0.515625 1.1875zm12.895447 -7.265625q1.765625 0 2.859375 0.84375q1.109375 0.828125 1.296875 2.46875l-1.625 0q-0.203125 -0.9375 -0.828125 -1.421875q-0.625 -0.5 -1.5625 -0.5q-1.484375 0 -2.25 0.984375q-0.765625 0.984375 -0.765625 2.78125q0 1.609375 0.75 2.578125q0.765625 0.953125 2.078125 0.953125q1.15625 0 1.8125 -0.625q0.671875 -0.625 0.828125 -1.734375l1.625 0q-0.265625 1.8125 -1.359375 2.796875q-1.09375 0.96875 -2.890625 0.96875q-2.109375 0 -3.3125 -1.328125q-1.203125 -1.328125 -1.203125 -3.609375q0 -2.359375 1.21875 -3.75q1.21875 -1.40625 3.328125 -1.40625zm7.676697 -3.453125l0 7.890625l4.40625 -4.21875l2.125 0l-3.828125 3.5l4.109375 6.140625l-2.015625 0l-3.3125 -5.03125l-1.484375 1.375l0 3.65625l-1.59375 0l0 -13.3125l1.59375 0z" fill-rule="nonzero"/><path fill="#000000" d="m579.5696 625.6441l0 0c0 -6.0360107 4.8860474 -10.929138 10.91333 -10.929138l0 0c2.8944092 0 5.670288 1.1514893 7.71698 3.2010498c2.0466309 2.0496216 3.1964111 4.829529 3.1964111 7.7280884l0 0c0 6.0360107 -4.8860474 10.929138 -10.913391 10.929138l0 0c-6.0272827 0 -10.91333 -4.8931274 -10.91333 -10.929138z" fill-rule="evenodd"/><path fill="#000000" d="m674.1496 619.17847l11.496094 6.645691l-11.496094 6.64563z" fill-rule="evenodd"/><path fill="#000000" fill-opacity="0.0" d="m579.5696 625.6441l-36.37726 0l0 -0.06298828l-36.378662 0" fill-rule="evenodd"/><path stroke="#000000" stroke-width="1.0" stroke-linejoin="round" stroke-linecap="butt" d="m579.5696 625.6441l-36.37726 0l0 -0.06298828l-36.378662 0" fill-rule="evenodd"/><path fill="#000000" fill-opacity="0.0" d="m674.1496 625.82416l-36.376465 0l0 -0.18896484l-36.379456 0" fill-rule="evenodd"/><path stroke="#000000" stroke-width="1.0" stroke-linejoin="round" stroke-linecap="butt" d="m674.1496 625.82416l-36.376465 0l0 -0.18896484l-36.379456 0" fill-rule="evenodd"/><path fill="#000000" d="m25.115486 534.81104l-11.496063 6.64563l11.496063 6.645691z" fill-rule="evenodd"/><path fill="#000000" fill-opacity="0.0" d="m381.82022 625.57874l-35.819916 0l0 -223.87402l-36.936005 0" fill-rule="evenodd"/><path stroke="#000000" stroke-width="1.0" stroke-linejoin="round" stroke-linecap="butt" d="m381.82022 625.57874l-35.819916 0l0 -223.87402l-36.936005 0" fill-rule="evenodd"/><path fill="#ffffff" d="m345.74933 536.00134l0 0c2.08313 0 4.0032043 1.1270142 5.018738 2.9458008c1.0155334 1.8187866 0.9675598 4.0446777 -0.12539673 5.818054c-1.092926 1.7733154 -3.059784 2.8165894 -5.1409607 2.7268677l0.24761963 -5.742737z" fill-rule="evenodd"/><path fill="#000000" fill-opacity="0.0" d="m345.74933 536.00134l0 0c2.08313 0 4.0032043 1.1270142 5.018738 2.9458008c1.0155334 1.8187866 0.9675598 4.0446777 -0.12539673 5.818054c-1.092926 1.7733154 -3.059784 2.8165894 -5.1409607 2.7268677" fill-rule="evenodd"/><path stroke="#000000" stroke-width="1.0" stroke-linejoin="round" stroke-linecap="butt" d="m345.74933 536.00134l0 0c2.08313 0 4.0032043 1.1270142 5.018738 2.9458008c1.0155334 1.8187866 0.9675598 4.0446777 -0.12539673 5.818054c-1.092926 1.7733154 -3.059784 2.8165894 -5.1409607 2.7268677" fill-rule="evenodd"/></g></svg>